<svg xmlns="http://www.w3.org/2000/svg" xmlns:xlink="http://www.w3.org/1999/xlink" width="500" zoomAndPan="magnify" viewBox="0 0 375 374.999991" height="500" preserveAspectRatio="xMidYMid meet" version="1.0"><defs><g/><clipPath id="8bf82f8895"><path d="M 169.433594 85.949219 L 284.464844 85.949219 L 284.464844 200.984375 L 169.433594 200.984375 Z M 169.433594 85.949219 " clip-rule="nonzero"/></clipPath><clipPath id="bb5780a8c0"><path d="M 226.949219 85.949219 C 195.183594 85.949219 169.433594 111.699219 169.433594 143.464844 C 169.433594 175.230469 195.183594 200.984375 226.949219 200.984375 C 258.714844 200.984375 284.464844 175.230469 284.464844 143.464844 C 284.464844 111.699219 258.714844 85.949219 226.949219 85.949219 Z M 226.949219 85.949219 " clip-rule="nonzero"/></clipPath><clipPath id="dd1c130784"><path d="M 102 125 L 267 125 L 267 215 L 102 215 Z M 102 125 " clip-rule="nonzero"/></clipPath><clipPath id="ab03ab82f1"><path d="M 90.535156 143.785156 L 248.0625 85.949219 L 278.425781 168.652344 L 120.898438 226.488281 Z M 90.535156 143.785156 " clip-rule="nonzero"/></clipPath><clipPath id="50415ec894"><path d="M 90.535156 143.785156 L 248.0625 85.949219 L 278.425781 168.652344 L 120.898438 226.488281 Z M 90.535156 143.785156 " clip-rule="nonzero"/></clipPath><clipPath id="6725a93817"><path d="M 90.535156 143.785156 L 248.0625 85.949219 L 278.425781 168.652344 L 120.898438 226.488281 Z M 90.535156 143.785156 " clip-rule="nonzero"/></clipPath></defs><g clip-path="url(#8bf82f8895)"><g clip-path="url(#bb5780a8c0)"><path fill="#f7b030" d="M 169.433594 85.949219 L 284.464844 85.949219 L 284.464844 200.984375 L 169.433594 200.984375 Z M 169.433594 85.949219 " fill-opacity="1" fill-rule="nonzero"/></g></g><g clip-path="url(#dd1c130784)"><g clip-path="url(#ab03ab82f1)"><g clip-path="url(#50415ec894)"><g clip-path="url(#6725a93817)"><path fill="#000000" d="M 263.226562 133.742188 C 255.160156 132.011719 246.96875 129.839844 239.039062 133.191406 C 230.335938 136.28125 221.679688 139.5 213.015625 142.691406 C 212.023438 143.054688 211.09375 143.164062 210.058594 142.898438 C 188.238281 137.554688 166.503906 131.863281 144.738281 126.296875 C 141.761719 125.601562 138.746094 125.898438 136.054688 127.140625 C 152.550781 136.046875 170.304688 143.214844 186.882812 152.035156 C 171.425781 158.363281 155.363281 163.601562 139.703125 169.5625 C 137.835938 170.261719 136.351562 169.90625 134.839844 168.644531 C 127.714844 162.683594 120.527344 156.792969 113.390625 150.847656 C 112.71875 150.285156 112.152344 150.214844 111.367188 150.515625 C 100.683594 155.234375 100.335938 151.152344 106.007812 161.003906 C 109.996094 167.945312 113.96875 174.890625 117.972656 181.824219 C 118.996094 183.597656 119 183.558594 117.109375 184.429688 C 114.207031 185.765625 111.316406 187.136719 108.4375 188.535156 C 106.78125 189.34375 107.457031 191.382812 109.464844 190.960938 C 113.539062 190.105469 117.40625 189.035156 121.347656 187.9375 C 123.890625 187.738281 126.445312 187.660156 128.988281 187.460938 C 147.652344 186.765625 164.347656 177.972656 181.804688 172.328125 C 172.410156 186.792969 161.378906 200.355469 151.949219 214.757812 C 155.558594 214.015625 159.3125 212.453125 162.035156 209.820312 C 175.992188 196.394531 189.886719 182.695312 204.132812 169.664062 C 203.308594 170.71875 201.90625 172.605469 204.152344 172.886719 C 205.355469 173.183594 206.902344 171.640625 207.75 172.886719 C 208.601562 174.125 209 174.195312 210.480469 173.753906 C 215.902344 172.136719 219.636719 170.980469 224.210938 169.429688 C 226.746094 168.558594 224.183594 163.515625 223.4375 161.835938 C 222.539062 160.238281 222.230469 160.082031 220.503906 160.703125 C 216.941406 161.984375 213.402344 163.34375 209.832031 164.613281 C 211.738281 162.3125 213.78125 160.179688 216.75 159.3125 C 222.886719 157.144531 228.984375 154.851562 235.097656 152.605469 C 235.101562 152.617188 235.105469 152.632812 235.109375 152.644531 C 239.09375 150.75 278.140625 139.296875 263.226562 133.742188 Z M 263.226562 133.742188 " fill-opacity="1" fill-rule="nonzero"/></g></g></g></g><g fill="#ff5601" fill-opacity="0.4"><g transform="translate(39.937502, 260.390169)"><g><path d="M 3.890625 0 L 3.890625 -32.46875 L 25.234375 -32.46875 L 25.234375 -26.25 L 11.21875 -26.25 L 11.21875 -19.53125 L 23.96875 -19.53125 L 23.96875 -13.359375 L 11.21875 -13.359375 L 11.21875 -6.265625 L 25.734375 -6.265625 L 25.734375 0 Z M 3.890625 0 "/></g></g></g><g fill="#ff5601" fill-opacity="0.4"><g transform="translate(68.038388, 260.390169)"><g><path d="M 1.109375 0 L 9.78125 -12.375 L 1.484375 -24.34375 L 9.453125 -24.34375 L 14.1875 -17.15625 L 16.46875 -20.640625 L 18.96875 -24.34375 L 26.9375 -24.34375 L 18.6875 -12.375 L 27.3125 0 L 19.203125 0 L 16.5625 -3.890625 L 14.234375 -7.375 L 11.875 -3.890625 L 9.234375 0 Z M 1.109375 0 "/></g></g></g><g fill="#ff5601" fill-opacity="0.4"><g transform="translate(96.463873, 260.390169)"><g><path d="M 18.265625 0.65625 C 16.753906 0.65625 15.347656 0.429688 14.046875 -0.015625 C 12.753906 -0.472656 11.597656 -1.101562 10.578125 -1.90625 L 10.578125 9.28125 L 3.53125 9.28125 L 3.53125 -24.34375 L 8.765625 -24.34375 L 9.546875 -21.5625 C 10.628906 -22.644531 11.910156 -23.488281 13.390625 -24.09375 C 14.878906 -24.695312 16.503906 -25 18.265625 -25 C 20.710938 -25 22.863281 -24.445312 24.71875 -23.34375 C 26.570312 -22.25 28.03125 -20.742188 29.09375 -18.828125 C 30.164062 -16.910156 30.703125 -14.703125 30.703125 -12.203125 C 30.703125 -9.691406 30.164062 -7.46875 29.09375 -5.53125 C 28.03125 -3.601562 26.570312 -2.085938 24.71875 -0.984375 C 22.863281 0.109375 20.710938 0.65625 18.265625 0.65625 Z M 10.296875 -12.203125 C 10.296875 -10.222656 10.921875 -8.597656 12.171875 -7.328125 C 13.421875 -6.054688 15.035156 -5.421875 17.015625 -5.421875 C 19.023438 -5.421875 20.648438 -6.054688 21.890625 -7.328125 C 23.128906 -8.597656 23.75 -10.222656 23.75 -12.203125 C 23.75 -14.179688 23.128906 -15.800781 21.890625 -17.0625 C 20.648438 -18.332031 19.023438 -18.96875 17.015625 -18.96875 C 15.035156 -18.96875 13.421875 -18.332031 12.171875 -17.0625 C 10.921875 -15.800781 10.296875 -14.179688 10.296875 -12.203125 Z M 10.296875 -12.203125 "/></g></g></g><g fill="#ff5601" fill-opacity="0.4"><g transform="translate(128.970013, 260.390169)"><g><path d="M 3.53125 0 L 3.53125 -34.3125 L 10.578125 -34.3125 L 10.578125 0 Z M 3.53125 0 "/></g></g></g><g fill="#ff5601" fill-opacity="0.4"><g transform="translate(143.066832, 260.390169)"><g><path d="M 15.484375 0.65625 C 12.796875 0.65625 10.421875 0.113281 8.359375 -0.96875 C 6.304688 -2.050781 4.703125 -3.554688 3.546875 -5.484375 C 2.390625 -7.421875 1.8125 -9.660156 1.8125 -12.203125 C 1.8125 -14.734375 2.390625 -16.957031 3.546875 -18.875 C 4.703125 -20.789062 6.304688 -22.289062 8.359375 -23.375 C 10.421875 -24.457031 12.796875 -25 15.484375 -25 C 18.179688 -25 20.554688 -24.457031 22.609375 -23.375 C 24.660156 -22.289062 26.257812 -20.789062 27.40625 -18.875 C 28.550781 -16.957031 29.125 -14.734375 29.125 -12.203125 C 29.125 -9.660156 28.550781 -7.421875 27.40625 -5.484375 C 26.257812 -3.554688 24.660156 -2.050781 22.609375 -0.96875 C 20.554688 0.113281 18.179688 0.65625 15.484375 0.65625 Z M 8.765625 -12.203125 C 8.765625 -10.222656 9.390625 -8.597656 10.640625 -7.328125 C 11.890625 -6.054688 13.503906 -5.421875 15.484375 -5.421875 C 17.460938 -5.421875 19.070312 -6.054688 20.3125 -7.328125 C 21.550781 -8.597656 22.171875 -10.222656 22.171875 -12.203125 C 22.171875 -14.210938 21.550781 -15.84375 20.3125 -17.09375 C 19.070312 -18.34375 17.460938 -18.96875 15.484375 -18.96875 C 13.503906 -18.96875 11.890625 -18.34375 10.640625 -17.09375 C 9.390625 -15.84375 8.765625 -14.210938 8.765625 -12.203125 Z M 8.765625 -12.203125 "/></g></g></g><g fill="#ff5601" fill-opacity="0.4"><g transform="translate(173.996354, 260.390169)"><g><path d="M 3.53125 0 L 3.53125 -24.34375 L 8.765625 -24.34375 L 9.6875 -21.09375 C 10.488281 -22.238281 11.476562 -23.066406 12.65625 -23.578125 C 13.832031 -24.085938 15.316406 -24.34375 17.109375 -24.34375 L 19.75 -24.34375 L 19.75 -17.953125 L 17.0625 -17.953125 C 15.050781 -17.953125 13.46875 -17.410156 12.3125 -16.328125 C 11.15625 -15.242188 10.578125 -13.390625 10.578125 -10.765625 L 10.578125 0 Z M 3.53125 0 "/></g></g></g><g fill="#ff5601" fill-opacity="0.4"><g transform="translate(195.327064, 260.390169)"><g><path d="M 15.03125 0.65625 C 12.425781 0.65625 10.125 0.113281 8.125 -0.96875 C 6.132812 -2.050781 4.582031 -3.554688 3.46875 -5.484375 C 2.363281 -7.421875 1.8125 -9.660156 1.8125 -12.203125 C 1.8125 -14.734375 2.375 -16.957031 3.5 -18.875 C 4.625 -20.789062 6.179688 -22.289062 8.171875 -23.375 C 10.171875 -24.457031 12.488281 -25 15.125 -25 C 17.90625 -25 20.304688 -24.378906 22.328125 -23.140625 C 24.347656 -21.898438 25.890625 -20.164062 26.953125 -17.9375 C 28.023438 -15.71875 28.484375 -13.125 28.328125 -10.15625 L 8.8125 -10.15625 C 9.15625 -8.488281 9.894531 -7.210938 11.03125 -6.328125 C 12.175781 -5.453125 13.554688 -5.015625 15.171875 -5.015625 C 16.335938 -5.015625 17.40625 -5.238281 18.375 -5.6875 C 19.351562 -6.132812 20.140625 -6.757812 20.734375 -7.5625 L 27.875 -7.5625 C 26.820312 -4.988281 25.164062 -2.972656 22.90625 -1.515625 C 20.65625 -0.0664062 18.03125 0.65625 15.03125 0.65625 Z M 8.859375 -14.609375 L 21.515625 -14.609375 C 21.117188 -16.085938 20.367188 -17.253906 19.265625 -18.109375 C 18.171875 -18.960938 16.804688 -19.390625 15.171875 -19.390625 C 13.617188 -19.390625 12.273438 -18.960938 11.140625 -18.109375 C 10.015625 -17.253906 9.253906 -16.085938 8.859375 -14.609375 Z M 8.859375 -14.609375 "/></g></g></g><g fill="#ff5601" fill-opacity="0.4"><g transform="translate(225.42191, 260.390169)"><g><path d="M 3.890625 0 L 3.890625 -32.46875 L 10.15625 -32.46875 L 24.484375 -12.703125 L 24.484375 -32.46875 L 31.8125 -32.46875 L 31.8125 0 L 25.546875 0 L 11.21875 -19.890625 L 11.21875 0 Z M 3.890625 0 "/></g></g></g><g fill="#ff5601" fill-opacity="0.4"><g transform="translate(261.127658, 260.390169)"><g><path d="M 15.484375 0.65625 C 12.796875 0.65625 10.421875 0.113281 8.359375 -0.96875 C 6.304688 -2.050781 4.703125 -3.554688 3.546875 -5.484375 C 2.390625 -7.421875 1.8125 -9.660156 1.8125 -12.203125 C 1.8125 -14.734375 2.390625 -16.957031 3.546875 -18.875 C 4.703125 -20.789062 6.304688 -22.289062 8.359375 -23.375 C 10.421875 -24.457031 12.796875 -25 15.484375 -25 C 18.179688 -25 20.554688 -24.457031 22.609375 -23.375 C 24.660156 -22.289062 26.257812 -20.789062 27.40625 -18.875 C 28.550781 -16.957031 29.125 -14.734375 29.125 -12.203125 C 29.125 -9.660156 28.550781 -7.421875 27.40625 -5.484375 C 26.257812 -3.554688 24.660156 -2.050781 22.609375 -0.96875 C 20.554688 0.113281 18.179688 0.65625 15.484375 0.65625 Z M 8.765625 -12.203125 C 8.765625 -10.222656 9.390625 -8.597656 10.640625 -7.328125 C 11.890625 -6.054688 13.503906 -5.421875 15.484375 -5.421875 C 17.460938 -5.421875 19.070312 -6.054688 20.3125 -7.328125 C 21.550781 -8.597656 22.171875 -10.222656 22.171875 -12.203125 C 22.171875 -14.210938 21.550781 -15.84375 20.3125 -17.09375 C 19.070312 -18.34375 17.460938 -18.96875 15.484375 -18.96875 C 13.503906 -18.96875 11.890625 -18.34375 10.640625 -17.09375 C 9.390625 -15.84375 8.765625 -14.210938 8.765625 -12.203125 Z M 8.765625 -12.203125 "/></g></g></g><g fill="#ff5601" fill-opacity="0.4"><g transform="translate(292.057191, 260.390169)"><g><path d="M 9.421875 0 L 0.421875 -24.34375 L 7.890625 -24.34375 L 10.71875 -16.28125 L 13.125 -9.453125 L 15.625 -16.28125 L 18.640625 -24.34375 L 24.34375 -24.34375 L 27.359375 -16.28125 L 29.859375 -9.421875 L 32.28125 -16.28125 L 35.15625 -24.34375 L 42.578125 -24.34375 L 33.578125 0 L 27.03125 0 L 21.515625 -14.84375 L 15.953125 0 Z M 9.421875 0 "/></g></g></g><g fill="#f7b030" fill-opacity="1"><g transform="translate(39.937502, 260.390169)"><g><path d="M 3.890625 0 L 3.890625 -32.46875 L 25.234375 -32.46875 L 25.234375 -26.25 L 11.21875 -26.25 L 11.21875 -19.53125 L 23.96875 -19.53125 L 23.96875 -13.359375 L 11.21875 -13.359375 L 11.21875 -6.265625 L 25.734375 -6.265625 L 25.734375 0 Z M 3.890625 0 "/></g></g></g><g fill="#f7b030" fill-opacity="1"><g transform="translate(68.038388, 260.390169)"><g><path d="M 1.109375 0 L 9.78125 -12.375 L 1.484375 -24.34375 L 9.453125 -24.34375 L 14.1875 -17.15625 L 16.46875 -20.640625 L 18.96875 -24.34375 L 26.9375 -24.34375 L 18.6875 -12.375 L 27.3125 0 L 19.203125 0 L 16.5625 -3.890625 L 14.234375 -7.375 L 11.875 -3.890625 L 9.234375 0 Z M 1.109375 0 "/></g></g></g><g fill="#f7b030" fill-opacity="1"><g transform="translate(96.463873, 260.390169)"><g><path d="M 18.265625 0.65625 C 16.753906 0.65625 15.347656 0.429688 14.046875 -0.015625 C 12.753906 -0.472656 11.597656 -1.101562 10.578125 -1.90625 L 10.578125 9.28125 L 3.53125 9.28125 L 3.53125 -24.34375 L 8.765625 -24.34375 L 9.546875 -21.5625 C 10.628906 -22.644531 11.910156 -23.488281 13.390625 -24.09375 C 14.878906 -24.695312 16.503906 -25 18.265625 -25 C 20.710938 -25 22.863281 -24.445312 24.71875 -23.34375 C 26.570312 -22.25 28.03125 -20.742188 29.09375 -18.828125 C 30.164062 -16.910156 30.703125 -14.703125 30.703125 -12.203125 C 30.703125 -9.691406 30.164062 -7.46875 29.09375 -5.53125 C 28.03125 -3.601562 26.570312 -2.085938 24.71875 -0.984375 C 22.863281 0.109375 20.710938 0.65625 18.265625 0.65625 Z M 10.296875 -12.203125 C 10.296875 -10.222656 10.921875 -8.597656 12.171875 -7.328125 C 13.421875 -6.054688 15.035156 -5.421875 17.015625 -5.421875 C 19.023438 -5.421875 20.648438 -6.054688 21.890625 -7.328125 C 23.128906 -8.597656 23.75 -10.222656 23.75 -12.203125 C 23.75 -14.179688 23.128906 -15.800781 21.890625 -17.0625 C 20.648438 -18.332031 19.023438 -18.96875 17.015625 -18.96875 C 15.035156 -18.96875 13.421875 -18.332031 12.171875 -17.0625 C 10.921875 -15.800781 10.296875 -14.179688 10.296875 -12.203125 Z M 10.296875 -12.203125 "/></g></g></g><g fill="#f7b030" fill-opacity="1"><g transform="translate(128.970013, 260.390169)"><g><path d="M 3.53125 0 L 3.53125 -34.3125 L 10.578125 -34.3125 L 10.578125 0 Z M 3.53125 0 "/></g></g></g><g fill="#f7b030" fill-opacity="1"><g transform="translate(143.066832, 260.390169)"><g><path d="M 15.484375 0.65625 C 12.796875 0.65625 10.421875 0.113281 8.359375 -0.96875 C 6.304688 -2.050781 4.703125 -3.554688 3.546875 -5.484375 C 2.390625 -7.421875 1.8125 -9.660156 1.8125 -12.203125 C 1.8125 -14.734375 2.390625 -16.957031 3.546875 -18.875 C 4.703125 -20.789062 6.304688 -22.289062 8.359375 -23.375 C 10.421875 -24.457031 12.796875 -25 15.484375 -25 C 18.179688 -25 20.554688 -24.457031 22.609375 -23.375 C 24.660156 -22.289062 26.257812 -20.789062 27.40625 -18.875 C 28.550781 -16.957031 29.125 -14.734375 29.125 -12.203125 C 29.125 -9.660156 28.550781 -7.421875 27.40625 -5.484375 C 26.257812 -3.554688 24.660156 -2.050781 22.609375 -0.96875 C 20.554688 0.113281 18.179688 0.65625 15.484375 0.65625 Z M 8.765625 -12.203125 C 8.765625 -10.222656 9.390625 -8.597656 10.640625 -7.328125 C 11.890625 -6.054688 13.503906 -5.421875 15.484375 -5.421875 C 17.460938 -5.421875 19.070312 -6.054688 20.3125 -7.328125 C 21.550781 -8.597656 22.171875 -10.222656 22.171875 -12.203125 C 22.171875 -14.210938 21.550781 -15.84375 20.3125 -17.09375 C 19.070312 -18.34375 17.460938 -18.96875 15.484375 -18.96875 C 13.503906 -18.96875 11.890625 -18.34375 10.640625 -17.09375 C 9.390625 -15.84375 8.765625 -14.210938 8.765625 -12.203125 Z M 8.765625 -12.203125 "/></g></g></g><g fill="#f7b030" fill-opacity="1"><g transform="translate(173.996354, 260.390169)"><g><path d="M 3.53125 0 L 3.53125 -24.34375 L 8.765625 -24.34375 L 9.6875 -21.09375 C 10.488281 -22.238281 11.476562 -23.066406 12.65625 -23.578125 C 13.832031 -24.085938 15.316406 -24.34375 17.109375 -24.34375 L 19.75 -24.34375 L 19.75 -17.953125 L 17.0625 -17.953125 C 15.050781 -17.953125 13.46875 -17.410156 12.3125 -16.328125 C 11.15625 -15.242188 10.578125 -13.390625 10.578125 -10.765625 L 10.578125 0 Z M 3.53125 0 "/></g></g></g><g fill="#f7b030" fill-opacity="1"><g transform="translate(195.327064, 260.390169)"><g><path d="M 15.03125 0.65625 C 12.425781 0.65625 10.125 0.113281 8.125 -0.96875 C 6.132812 -2.050781 4.582031 -3.554688 3.46875 -5.484375 C 2.363281 -7.421875 1.8125 -9.660156 1.8125 -12.203125 C 1.8125 -14.734375 2.375 -16.957031 3.5 -18.875 C 4.625 -20.789062 6.179688 -22.289062 8.171875 -23.375 C 10.171875 -24.457031 12.488281 -25 15.125 -25 C 17.90625 -25 20.304688 -24.378906 22.328125 -23.140625 C 24.347656 -21.898438 25.890625 -20.164062 26.953125 -17.9375 C 28.023438 -15.71875 28.484375 -13.125 28.328125 -10.15625 L 8.8125 -10.15625 C 9.15625 -8.488281 9.894531 -7.210938 11.03125 -6.328125 C 12.175781 -5.453125 13.554688 -5.015625 15.171875 -5.015625 C 16.335938 -5.015625 17.40625 -5.238281 18.375 -5.6875 C 19.351562 -6.132812 20.140625 -6.757812 20.734375 -7.5625 L 27.875 -7.5625 C 26.820312 -4.988281 25.164062 -2.972656 22.90625 -1.515625 C 20.65625 -0.0664062 18.03125 0.65625 15.03125 0.65625 Z M 8.859375 -14.609375 L 21.515625 -14.609375 C 21.117188 -16.085938 20.367188 -17.253906 19.265625 -18.109375 C 18.171875 -18.960938 16.804688 -19.390625 15.171875 -19.390625 C 13.617188 -19.390625 12.273438 -18.960938 11.140625 -18.109375 C 10.015625 -17.253906 9.253906 -16.085938 8.859375 -14.609375 Z M 8.859375 -14.609375 "/></g></g></g><g fill="#f7b030" fill-opacity="1"><g transform="translate(225.42191, 260.390169)"><g><path d="M 3.890625 0 L 3.890625 -32.46875 L 10.15625 -32.46875 L 24.484375 -12.703125 L 24.484375 -32.46875 L 31.8125 -32.46875 L 31.8125 0 L 25.546875 0 L 11.21875 -19.890625 L 11.21875 0 Z M 3.890625 0 "/></g></g></g><g fill="#f7b030" fill-opacity="1"><g transform="translate(261.127658, 260.390169)"><g><path d="M 15.484375 0.65625 C 12.796875 0.65625 10.421875 0.113281 8.359375 -0.96875 C 6.304688 -2.050781 4.703125 -3.554688 3.546875 -5.484375 C 2.390625 -7.421875 1.8125 -9.660156 1.8125 -12.203125 C 1.8125 -14.734375 2.390625 -16.957031 3.546875 -18.875 C 4.703125 -20.789062 6.304688 -22.289062 8.359375 -23.375 C 10.421875 -24.457031 12.796875 -25 15.484375 -25 C 18.179688 -25 20.554688 -24.457031 22.609375 -23.375 C 24.660156 -22.289062 26.257812 -20.789062 27.40625 -18.875 C 28.550781 -16.957031 29.125 -14.734375 29.125 -12.203125 C 29.125 -9.660156 28.550781 -7.421875 27.40625 -5.484375 C 26.257812 -3.554688 24.660156 -2.050781 22.609375 -0.96875 C 20.554688 0.113281 18.179688 0.65625 15.484375 0.65625 Z M 8.765625 -12.203125 C 8.765625 -10.222656 9.390625 -8.597656 10.640625 -7.328125 C 11.890625 -6.054688 13.503906 -5.421875 15.484375 -5.421875 C 17.460938 -5.421875 19.070312 -6.054688 20.3125 -7.328125 C 21.550781 -8.597656 22.171875 -10.222656 22.171875 -12.203125 C 22.171875 -14.210938 21.550781 -15.84375 20.3125 -17.09375 C 19.070312 -18.34375 17.460938 -18.96875 15.484375 -18.96875 C 13.503906 -18.96875 11.890625 -18.34375 10.640625 -17.09375 C 9.390625 -15.84375 8.765625 -14.210938 8.765625 -12.203125 Z M 8.765625 -12.203125 "/></g></g></g><g fill="#f7b030" fill-opacity="1"><g transform="translate(292.057191, 260.390169)"><g><path d="M 9.421875 0 L 0.421875 -24.34375 L 7.890625 -24.34375 L 10.71875 -16.28125 L 13.125 -9.453125 L 15.625 -16.28125 L 18.640625 -24.34375 L 24.34375 -24.34375 L 27.359375 -16.28125 L 29.859375 -9.421875 L 32.28125 -16.28125 L 35.15625 -24.34375 L 42.578125 -24.34375 L 33.578125 0 L 27.03125 0 L 21.515625 -14.84375 L 15.953125 0 Z M 9.421875 0 "/></g></g></g><g fill="#000000" fill-opacity="1"><g transform="translate(118.924047, 277.707697)"><g><path d="M 4.265625 0 C 3.398438 0 2.734375 -0.21875 2.265625 -0.65625 C 1.804688 -1.101562 1.578125 -1.742188 1.578125 -2.578125 L 1.578125 -5.203125 L 0.265625 -5.203125 L 0.265625 -6.8125 L 0.875 -6.8125 C 1.238281 -6.8125 1.488281 -6.867188 1.625 -6.984375 C 1.757812 -7.109375 1.851562 -7.34375 1.90625 -7.6875 L 2.015625 -8.578125 L 3.546875 -8.578125 L 3.546875 -6.8125 L 5.421875 -6.8125 L 5.421875 -5.203125 L 3.546875 -5.203125 L 3.546875 -2.875 C 3.546875 -2.101562 3.925781 -1.71875 4.6875 -1.71875 L 5.515625 -1.71875 L 5.515625 0 Z M 4.265625 0 "/></g></g></g><g fill="#000000" fill-opacity="1"><g transform="translate(125.618247, 277.707697)"><g><path d="M 4.328125 0.1875 C 3.578125 0.1875 2.914062 0.0351562 2.34375 -0.265625 C 1.769531 -0.566406 1.316406 -0.988281 0.984375 -1.53125 C 0.660156 -2.070312 0.5 -2.695312 0.5 -3.40625 C 0.5 -4.113281 0.660156 -4.734375 0.984375 -5.265625 C 1.316406 -5.804688 1.769531 -6.226562 2.34375 -6.53125 C 2.914062 -6.832031 3.578125 -6.984375 4.328125 -6.984375 C 5.078125 -6.984375 5.738281 -6.832031 6.3125 -6.53125 C 6.894531 -6.226562 7.34375 -5.804688 7.65625 -5.265625 C 7.976562 -4.734375 8.140625 -4.113281 8.140625 -3.40625 C 8.140625 -2.695312 7.976562 -2.070312 7.65625 -1.53125 C 7.34375 -0.988281 6.894531 -0.566406 6.3125 -0.265625 C 5.738281 0.0351562 5.078125 0.1875 4.328125 0.1875 Z M 2.453125 -3.40625 C 2.453125 -2.851562 2.625 -2.398438 2.96875 -2.046875 C 3.320312 -1.691406 3.773438 -1.515625 4.328125 -1.515625 C 4.878906 -1.515625 5.328125 -1.691406 5.671875 -2.046875 C 6.023438 -2.398438 6.203125 -2.851562 6.203125 -3.40625 C 6.203125 -3.96875 6.023438 -4.421875 5.671875 -4.765625 C 5.328125 -5.117188 4.878906 -5.296875 4.328125 -5.296875 C 3.773438 -5.296875 3.320312 -5.117188 2.96875 -4.765625 C 2.625 -4.421875 2.453125 -3.96875 2.453125 -3.40625 Z M 2.453125 -3.40625 "/></g></g></g><g fill="#000000" fill-opacity="1"><g transform="translate(134.906959, 277.707697)"><g><path d="M 3.703125 0.1875 C 2.816406 0.1875 2.117188 -0.0859375 1.609375 -0.640625 C 1.109375 -1.203125 0.859375 -1.957031 0.859375 -2.90625 L 0.859375 -6.8125 L 2.828125 -6.8125 L 2.828125 -3.09375 C 2.828125 -2.59375 2.945312 -2.203125 3.1875 -1.921875 C 3.425781 -1.648438 3.75 -1.515625 4.15625 -1.515625 C 4.613281 -1.515625 4.972656 -1.671875 5.234375 -1.984375 C 5.503906 -2.296875 5.640625 -2.71875 5.640625 -3.25 L 5.640625 -6.8125 L 7.609375 -6.8125 L 7.609375 0 L 6.140625 0 L 5.9375 -0.765625 C 5.664062 -0.441406 5.335938 -0.203125 4.953125 -0.046875 C 4.566406 0.109375 4.148438 0.1875 3.703125 0.1875 Z M 3.703125 0.1875 "/></g></g></g><g fill="#000000" fill-opacity="1"><g transform="translate(144.143785, 277.707697)"><g><path d="M 0.984375 0 L 0.984375 -6.8125 L 2.453125 -6.8125 L 2.703125 -5.90625 C 2.929688 -6.21875 3.207031 -6.445312 3.53125 -6.59375 C 3.863281 -6.738281 4.28125 -6.8125 4.78125 -6.8125 L 5.53125 -6.8125 L 5.53125 -5.015625 L 4.765625 -5.015625 C 4.203125 -5.015625 3.757812 -4.863281 3.4375 -4.5625 C 3.113281 -4.257812 2.953125 -3.742188 2.953125 -3.015625 L 2.953125 0 Z M 0.984375 0 "/></g></g></g><g fill="#000000" fill-opacity="1"><g transform="translate(150.747175, 277.707697)"><g/></g></g><g fill="#000000" fill-opacity="1"><g transform="translate(154.431726, 277.707697)"><g><path d="M 4.265625 0 C 3.398438 0 2.734375 -0.21875 2.265625 -0.65625 C 1.804688 -1.101562 1.578125 -1.742188 1.578125 -2.578125 L 1.578125 -5.203125 L 0.265625 -5.203125 L 0.265625 -6.8125 L 0.875 -6.8125 C 1.238281 -6.8125 1.488281 -6.867188 1.625 -6.984375 C 1.757812 -7.109375 1.851562 -7.34375 1.90625 -7.6875 L 2.015625 -8.578125 L 3.546875 -8.578125 L 3.546875 -6.8125 L 5.421875 -6.8125 L 5.421875 -5.203125 L 3.546875 -5.203125 L 3.546875 -2.875 C 3.546875 -2.101562 3.925781 -1.71875 4.6875 -1.71875 L 5.515625 -1.71875 L 5.515625 0 Z M 4.265625 0 "/></g></g></g><g fill="#000000" fill-opacity="1"><g transform="translate(161.125924, 277.707697)"><g><path d="M 0.984375 0 L 0.984375 -6.8125 L 2.453125 -6.8125 L 2.703125 -5.90625 C 2.929688 -6.21875 3.207031 -6.445312 3.53125 -6.59375 C 3.863281 -6.738281 4.28125 -6.8125 4.78125 -6.8125 L 5.53125 -6.8125 L 5.53125 -5.015625 L 4.765625 -5.015625 C 4.203125 -5.015625 3.757812 -4.863281 3.4375 -4.5625 C 3.113281 -4.257812 2.953125 -3.742188 2.953125 -3.015625 L 2.953125 0 Z M 0.984375 0 "/></g></g></g><g fill="#000000" fill-opacity="1"><g transform="translate(167.729313, 277.707697)"><g><path d="M 3.25 0.125 C 2.445312 0.125 1.8125 -0.0625 1.34375 -0.4375 C 0.882812 -0.8125 0.65625 -1.328125 0.65625 -1.984375 C 0.65625 -2.617188 0.863281 -3.125 1.28125 -3.5 C 1.695312 -3.875 2.257812 -4.0625 2.96875 -4.0625 L 5.4375 -4.0625 L 5.4375 -4.375 C 5.4375 -4.707031 5.3125 -4.972656 5.0625 -5.171875 C 4.820312 -5.378906 4.507812 -5.484375 4.125 -5.484375 C 3.800781 -5.484375 3.523438 -5.410156 3.296875 -5.265625 C 3.078125 -5.117188 2.9375 -4.925781 2.875 -4.6875 L 0.984375 -4.6875 C 1.109375 -5.425781 1.441406 -5.992188 1.984375 -6.390625 C 2.535156 -6.785156 3.242188 -6.984375 4.109375 -6.984375 C 5.128906 -6.984375 5.925781 -6.726562 6.5 -6.21875 C 7.070312 -5.707031 7.359375 -5 7.359375 -4.09375 L 7.359375 0 L 5.90625 0 L 5.6875 -0.796875 C 5.082031 -0.179688 4.269531 0.125 3.25 0.125 Z M 2.59375 -2.0625 C 2.59375 -1.832031 2.691406 -1.644531 2.890625 -1.5 C 3.097656 -1.351562 3.367188 -1.28125 3.703125 -1.28125 C 4.203125 -1.28125 4.613281 -1.421875 4.9375 -1.703125 C 5.257812 -1.992188 5.429688 -2.367188 5.453125 -2.828125 L 3.578125 -2.828125 C 3.285156 -2.828125 3.046875 -2.753906 2.859375 -2.609375 C 2.679688 -2.472656 2.59375 -2.289062 2.59375 -2.0625 Z M 2.59375 -2.0625 "/></g></g></g><g fill="#000000" fill-opacity="1"><g transform="translate(176.589935, 277.707697)"><g><path d="M 2.9375 0 L 0.109375 -6.8125 L 2.265625 -6.8125 L 3.03125 -4.671875 L 3.9375 -2.359375 L 4.84375 -4.671875 L 5.609375 -6.8125 L 7.75 -6.8125 L 4.921875 0 Z M 2.9375 0 "/></g></g></g><g fill="#000000" fill-opacity="1"><g transform="translate(185.100288, 277.707697)"><g><path d="M 4.203125 0.1875 C 3.472656 0.1875 2.828125 0.0351562 2.265625 -0.265625 C 1.710938 -0.566406 1.28125 -0.988281 0.96875 -1.53125 C 0.65625 -2.070312 0.5 -2.695312 0.5 -3.40625 C 0.5 -4.113281 0.65625 -4.734375 0.96875 -5.265625 C 1.289062 -5.804688 1.726562 -6.226562 2.28125 -6.53125 C 2.84375 -6.832031 3.492188 -6.984375 4.234375 -6.984375 C 5.003906 -6.984375 5.671875 -6.8125 6.234375 -6.46875 C 6.804688 -6.125 7.238281 -5.640625 7.53125 -5.015625 C 7.832031 -4.390625 7.960938 -3.664062 7.921875 -2.84375 L 2.46875 -2.84375 C 2.5625 -2.375 2.765625 -2.015625 3.078125 -1.765625 C 3.398438 -1.523438 3.785156 -1.40625 4.234375 -1.40625 C 4.566406 -1.40625 4.867188 -1.46875 5.140625 -1.59375 C 5.410156 -1.71875 5.628906 -1.890625 5.796875 -2.109375 L 7.796875 -2.109375 C 7.503906 -1.390625 7.039062 -0.828125 6.40625 -0.421875 C 5.769531 -0.015625 5.035156 0.1875 4.203125 0.1875 Z M 2.484375 -4.078125 L 6.015625 -4.078125 C 5.898438 -4.492188 5.6875 -4.820312 5.375 -5.0625 C 5.070312 -5.300781 4.691406 -5.421875 4.234375 -5.421875 C 3.804688 -5.421875 3.429688 -5.300781 3.109375 -5.0625 C 2.796875 -4.820312 2.585938 -4.492188 2.484375 -4.078125 Z M 2.484375 -4.078125 "/></g></g></g><g fill="#000000" fill-opacity="1"><g transform="translate(194.155493, 277.707697)"><g><path d="M 0.984375 0 L 0.984375 -9.59375 L 2.953125 -9.59375 L 2.953125 0 Z M 0.984375 0 "/></g></g></g><g fill="#000000" fill-opacity="1"><g transform="translate(198.735155, 277.707697)"><g/></g></g><g fill="#000000" fill-opacity="1"><g transform="translate(202.419706, 277.707697)"><g><path d="M 3.25 0.125 C 2.445312 0.125 1.8125 -0.0625 1.34375 -0.4375 C 0.882812 -0.8125 0.65625 -1.328125 0.65625 -1.984375 C 0.65625 -2.617188 0.863281 -3.125 1.28125 -3.5 C 1.695312 -3.875 2.257812 -4.0625 2.96875 -4.0625 L 5.4375 -4.0625 L 5.4375 -4.375 C 5.4375 -4.707031 5.3125 -4.972656 5.0625 -5.171875 C 4.820312 -5.378906 4.507812 -5.484375 4.125 -5.484375 C 3.800781 -5.484375 3.523438 -5.410156 3.296875 -5.265625 C 3.078125 -5.117188 2.9375 -4.925781 2.875 -4.6875 L 0.984375 -4.6875 C 1.109375 -5.425781 1.441406 -5.992188 1.984375 -6.390625 C 2.535156 -6.785156 3.242188 -6.984375 4.109375 -6.984375 C 5.128906 -6.984375 5.925781 -6.726562 6.5 -6.21875 C 7.070312 -5.707031 7.359375 -5 7.359375 -4.09375 L 7.359375 0 L 5.90625 0 L 5.6875 -0.796875 C 5.082031 -0.179688 4.269531 0.125 3.25 0.125 Z M 2.59375 -2.0625 C 2.59375 -1.832031 2.691406 -1.644531 2.890625 -1.5 C 3.097656 -1.351562 3.367188 -1.28125 3.703125 -1.28125 C 4.203125 -1.28125 4.613281 -1.421875 4.9375 -1.703125 C 5.257812 -1.992188 5.429688 -2.367188 5.453125 -2.828125 L 3.578125 -2.828125 C 3.285156 -2.828125 3.046875 -2.753906 2.859375 -2.609375 C 2.679688 -2.472656 2.59375 -2.289062 2.59375 -2.0625 Z M 2.59375 -2.0625 "/></g></g></g><g fill="#000000" fill-opacity="1"><g transform="translate(211.280328, 277.707697)"><g><path d="M 4.3125 2.875 C 3.320312 2.875 2.515625 2.648438 1.890625 2.203125 C 1.273438 1.753906 0.925781 1.132812 0.84375 0.34375 L 2.765625 0.34375 C 2.828125 0.644531 2.988281 0.875 3.25 1.03125 C 3.519531 1.195312 3.859375 1.28125 4.265625 1.28125 C 5.359375 1.28125 5.90625 0.726562 5.90625 -0.375 L 5.90625 -0.859375 C 5.625 -0.640625 5.300781 -0.472656 4.9375 -0.359375 C 4.582031 -0.242188 4.203125 -0.1875 3.796875 -0.1875 C 3.160156 -0.1875 2.59375 -0.328125 2.09375 -0.609375 C 1.59375 -0.898438 1.203125 -1.300781 0.921875 -1.8125 C 0.640625 -2.332031 0.5 -2.925781 0.5 -3.59375 C 0.5 -4.257812 0.640625 -4.847656 0.921875 -5.359375 C 1.203125 -5.867188 1.59375 -6.265625 2.09375 -6.546875 C 2.59375 -6.835938 3.160156 -6.984375 3.796875 -6.984375 C 4.285156 -6.984375 4.734375 -6.90625 5.140625 -6.75 C 5.554688 -6.59375 5.910156 -6.363281 6.203125 -6.0625 L 6.40625 -6.8125 L 7.875 -6.8125 L 7.875 -0.375 C 7.875 0.300781 7.726562 0.878906 7.4375 1.359375 C 7.144531 1.847656 6.726562 2.222656 6.1875 2.484375 C 5.65625 2.742188 5.03125 2.875 4.3125 2.875 Z M 2.453125 -3.59375 C 2.453125 -3.0625 2.613281 -2.628906 2.9375 -2.296875 C 3.269531 -1.972656 3.695312 -1.8125 4.21875 -1.8125 C 4.738281 -1.8125 5.160156 -1.972656 5.484375 -2.296875 C 5.816406 -2.628906 5.984375 -3.0625 5.984375 -3.59375 C 5.984375 -4.113281 5.816406 -4.535156 5.484375 -4.859375 C 5.160156 -5.191406 4.738281 -5.359375 4.21875 -5.359375 C 3.695312 -5.359375 3.269531 -5.191406 2.9375 -4.859375 C 2.613281 -4.535156 2.453125 -4.113281 2.453125 -3.59375 Z M 2.453125 -3.59375 "/></g></g></g><g fill="#000000" fill-opacity="1"><g transform="translate(220.789584, 277.707697)"><g><path d="M 4.203125 0.1875 C 3.472656 0.1875 2.828125 0.0351562 2.265625 -0.265625 C 1.710938 -0.566406 1.28125 -0.988281 0.96875 -1.53125 C 0.65625 -2.070312 0.5 -2.695312 0.5 -3.40625 C 0.5 -4.113281 0.65625 -4.734375 0.96875 -5.265625 C 1.289062 -5.804688 1.726562 -6.226562 2.28125 -6.53125 C 2.84375 -6.832031 3.492188 -6.984375 4.234375 -6.984375 C 5.003906 -6.984375 5.671875 -6.8125 6.234375 -6.46875 C 6.804688 -6.125 7.238281 -5.640625 7.53125 -5.015625 C 7.832031 -4.390625 7.960938 -3.664062 7.921875 -2.84375 L 2.46875 -2.84375 C 2.5625 -2.375 2.765625 -2.015625 3.078125 -1.765625 C 3.398438 -1.523438 3.785156 -1.40625 4.234375 -1.40625 C 4.566406 -1.40625 4.867188 -1.46875 5.140625 -1.59375 C 5.410156 -1.71875 5.628906 -1.890625 5.796875 -2.109375 L 7.796875 -2.109375 C 7.503906 -1.390625 7.039062 -0.828125 6.40625 -0.421875 C 5.769531 -0.015625 5.035156 0.1875 4.203125 0.1875 Z M 2.484375 -4.078125 L 6.015625 -4.078125 C 5.898438 -4.492188 5.6875 -4.820312 5.375 -5.0625 C 5.070312 -5.300781 4.691406 -5.421875 4.234375 -5.421875 C 3.804688 -5.421875 3.429688 -5.300781 3.109375 -5.0625 C 2.796875 -4.820312 2.585938 -4.492188 2.484375 -4.078125 Z M 2.484375 -4.078125 "/></g></g></g><g fill="#000000" fill-opacity="1"><g transform="translate(229.84479, 277.707697)"><g><path d="M 0.984375 0 L 0.984375 -6.8125 L 2.453125 -6.8125 L 2.65625 -6.046875 C 2.9375 -6.359375 3.269531 -6.59375 3.65625 -6.75 C 4.050781 -6.90625 4.472656 -6.984375 4.921875 -6.984375 C 5.816406 -6.984375 6.515625 -6.707031 7.015625 -6.15625 C 7.523438 -5.601562 7.78125 -4.859375 7.78125 -3.921875 L 7.78125 0 L 5.8125 0 L 5.8125 -3.703125 C 5.8125 -4.210938 5.691406 -4.601562 5.453125 -4.875 C 5.210938 -5.15625 4.882812 -5.296875 4.46875 -5.296875 C 4.007812 -5.296875 3.640625 -5.140625 3.359375 -4.828125 C 3.085938 -4.523438 2.953125 -4.101562 2.953125 -3.5625 L 2.953125 0 Z M 0.984375 0 "/></g></g></g><g fill="#000000" fill-opacity="1"><g transform="translate(239.120534, 277.707697)"><g><path d="M 4.234375 0.1875 C 3.503906 0.1875 2.859375 0.0351562 2.296875 -0.265625 C 1.734375 -0.578125 1.289062 -1.003906 0.96875 -1.546875 C 0.65625 -2.085938 0.5 -2.707031 0.5 -3.40625 C 0.5 -4.113281 0.65625 -4.734375 0.96875 -5.265625 C 1.289062 -5.796875 1.734375 -6.210938 2.296875 -6.515625 C 2.859375 -6.828125 3.503906 -6.984375 4.234375 -6.984375 C 4.859375 -6.984375 5.425781 -6.867188 5.9375 -6.640625 C 6.457031 -6.410156 6.882812 -6.085938 7.21875 -5.671875 C 7.5625 -5.253906 7.785156 -4.765625 7.890625 -4.203125 L 5.984375 -4.203125 C 5.828125 -4.546875 5.597656 -4.8125 5.296875 -5 C 4.992188 -5.195312 4.644531 -5.296875 4.25 -5.296875 C 3.726562 -5.296875 3.296875 -5.117188 2.953125 -4.765625 C 2.617188 -4.421875 2.453125 -3.96875 2.453125 -3.40625 C 2.453125 -2.851562 2.617188 -2.398438 2.953125 -2.046875 C 3.296875 -1.691406 3.726562 -1.515625 4.25 -1.515625 C 4.664062 -1.515625 5.03125 -1.625 5.34375 -1.84375 C 5.664062 -2.0625 5.894531 -2.359375 6.03125 -2.734375 L 7.953125 -2.734375 C 7.828125 -2.140625 7.59375 -1.625 7.25 -1.1875 C 6.914062 -0.75 6.488281 -0.410156 5.96875 -0.171875 C 5.445312 0.0664062 4.867188 0.1875 4.234375 0.1875 Z M 4.234375 0.1875 "/></g></g></g><g fill="#000000" fill-opacity="1"><g transform="translate(248.188718, 277.707697)"><g><path d="M 1.015625 2.59375 L 1.015625 0.890625 L 1.796875 0.890625 C 2.203125 0.890625 2.492188 0.828125 2.671875 0.703125 C 2.847656 0.578125 2.988281 0.347656 3.09375 0.015625 L 3.171875 -0.21875 L 0.109375 -6.8125 L 2.296875 -6.8125 L 4.125 -2.59375 L 4.75 -4.328125 L 5.65625 -6.8125 L 7.765625 -6.8125 L 4.734375 0.796875 C 4.554688 1.265625 4.347656 1.628906 4.109375 1.890625 C 3.878906 2.148438 3.585938 2.332031 3.234375 2.4375 C 2.890625 2.539062 2.457031 2.59375 1.9375 2.59375 Z M 1.015625 2.59375 "/></g></g></g></svg>