<svg xmlns="http://www.w3.org/2000/svg" xmlns:xlink="http://www.w3.org/1999/xlink" width="780" zoomAndPan="magnify" viewBox="0 0 585 305.25" height="407" preserveAspectRatio="xMidYMid meet" version="1.0"><defs><g/><clipPath id="3023fe234a"><path d="M 340 302 L 343 302 L 343 303.800781 L 340 303.800781 Z M 340 302 " clip-rule="nonzero"/></clipPath></defs><g clip-path="url(#3023fe234a)"><path fill="#eea221" d="M 341.527344 302.980469 L 340.203125 303.453125 L 342.476562 304.023438 C 343.140625 304.023438 343.042969 303.453125 341.527344 302.980469 Z M 341.527344 302.980469 " fill-opacity="1" fill-rule="nonzero"/></g><path fill="#eea221" d="M 333.566406 298.90625 C 331.769531 298.714844 329.589844 298.714844 330.347656 299.851562 C 332.335938 299.664062 332.527344 300.136719 334.707031 299.851562 C 336.125 300.328125 337.074219 301.085938 336.695312 301.273438 C 337.265625 301.273438 338.875 302.316406 339.820312 302.03125 C 338.210938 300.707031 335.84375 299.757812 333.285156 299.378906 C 332.808594 299.09375 333.378906 299 333.566406 298.90625 Z M 333.566406 298.90625 " fill-opacity="1" fill-rule="nonzero"/><path fill="#eea221" d="M 190.105469 265.835938 C 189.820312 265.738281 189.535156 265.738281 189.15625 265.644531 Z M 190.105469 265.835938 " fill-opacity="1" fill-rule="nonzero"/><path fill="#eea221" d="M 189.15625 265.644531 L 186.695312 265.171875 C 186.597656 265.457031 188.019531 265.550781 189.15625 265.644531 Z M 189.15625 265.644531 " fill-opacity="1" fill-rule="nonzero"/><path fill="#eea221" d="M 313.574219 294.167969 C 314.046875 294.261719 314.523438 294.355469 314.902344 294.355469 C 314.523438 294.261719 314.144531 294.167969 313.667969 294.074219 C 313.667969 294.167969 313.667969 294.167969 313.574219 294.167969 Z M 313.574219 294.167969 " fill-opacity="1" fill-rule="nonzero"/><path fill="#eea221" d="M 229.617188 269.71875 L 230.375 269.816406 C 230.566406 269.71875 230.851562 269.625 231.039062 269.53125 Z M 229.617188 269.71875 " fill-opacity="1" fill-rule="nonzero"/><path fill="#eea221" d="M 258.992188 276.070312 C 259.46875 275.878906 260.035156 275.785156 260.605469 275.878906 C 260.605469 275.785156 260.605469 275.59375 260.414062 275.308594 C 259.65625 275.121094 259.277344 275.785156 258.992188 276.070312 Z M 258.992188 276.070312 " fill-opacity="1" fill-rule="nonzero"/><path fill="#eea221" d="M 307.890625 289.238281 L 308.742188 289.429688 C 308.550781 289.335938 308.171875 289.238281 307.890625 289.238281 Z M 307.890625 289.238281 " fill-opacity="1" fill-rule="nonzero"/><path fill="#eea221" d="M 207.257812 266.308594 C 207.257812 266.402344 207.351562 266.496094 207.539062 266.59375 C 207.445312 266.402344 207.351562 266.308594 207.257812 266.308594 Z M 207.257812 266.308594 " fill-opacity="1" fill-rule="nonzero"/><path fill="#eea221" d="M 104.445312 245.175781 C 104.445312 245.082031 104.445312 245.082031 104.445312 245.082031 C 104.253906 245.082031 104.160156 245.175781 104.445312 245.175781 Z M 104.445312 245.175781 " fill-opacity="1" fill-rule="nonzero"/><path fill="#eea221" d="M 68.246094 244.609375 L 68.71875 244.515625 C 68.71875 244.324219 68.816406 244.230469 68.816406 244.039062 Z M 68.246094 244.609375 " fill-opacity="1" fill-rule="nonzero"/><path fill="#eea221" d="M 151.066406 259.011719 C 150.96875 259.011719 150.96875 259.011719 150.96875 259.011719 C 150.210938 259.203125 150.6875 259.105469 151.066406 259.011719 Z M 151.066406 259.011719 " fill-opacity="1" fill-rule="nonzero"/><path fill="#eea221" d="M 414.015625 252.191406 C 410.984375 251.621094 418.851562 251.050781 414.300781 250.578125 C 414.777344 250.863281 410.320312 251.90625 414.015625 252.191406 Z M 414.015625 252.191406 " fill-opacity="1" fill-rule="nonzero"/><path fill="#eea221" d="M 312.816406 293.882812 C 312.4375 293.789062 311.964844 293.597656 311.585938 293.503906 C 312.152344 293.695312 312.53125 293.789062 312.816406 293.882812 Z M 312.816406 293.882812 " fill-opacity="1" fill-rule="nonzero"/><path fill="#eea221" d="M 216.449219 251.808594 C 216.351562 251.714844 216.070312 251.621094 215.785156 251.527344 C 215.785156 251.621094 215.972656 251.714844 216.449219 251.808594 Z M 216.449219 251.808594 " fill-opacity="1" fill-rule="nonzero"/><path fill="#eea221" d="M 167.457031 254.9375 L 168.691406 254.84375 C 168.214844 254.9375 167.835938 254.9375 167.457031 254.9375 Z M 167.457031 254.9375 " fill-opacity="1" fill-rule="nonzero"/><path fill="#eea221" d="M 242.507812 250.105469 C 242.316406 250.105469 242.222656 250.105469 241.9375 250.011719 C 242.125 250.105469 242.316406 250.105469 242.507812 250.105469 Z M 242.507812 250.105469 " fill-opacity="1" fill-rule="nonzero"/><path fill="#eea221" d="M 242.507812 250.105469 C 242.886719 250.105469 243.167969 250.199219 243.738281 250.105469 C 243.644531 250.105469 243.546875 250.011719 243.453125 250.011719 C 243.265625 250.011719 242.980469 250.105469 242.507812 250.105469 Z M 242.507812 250.105469 " fill-opacity="1" fill-rule="nonzero"/><path fill="#eea221" d="M 268.5625 250.011719 C 268.46875 249.914062 268.28125 249.914062 268.089844 249.820312 C 267.804688 249.820312 267.523438 249.820312 267.238281 249.820312 Z M 268.5625 250.011719 " fill-opacity="1" fill-rule="nonzero"/><path fill="#eea221" d="M 185.175781 239.585938 C 184.609375 239.398438 184.230469 239.207031 183.945312 238.921875 C 184.324219 239.492188 180.441406 239.871094 185.175781 239.585938 Z M 185.175781 239.585938 " fill-opacity="1" fill-rule="nonzero"/><path fill="#eea221" d="M 313.667969 293.789062 C 313.480469 293.882812 313.195312 293.976562 312.816406 293.882812 C 313.101562 293.976562 313.386719 294.074219 313.667969 294.074219 C 313.765625 293.976562 313.859375 293.882812 313.667969 293.789062 Z M 313.667969 293.789062 " fill-opacity="1" fill-rule="nonzero"/><path fill="#eea221" d="M 242.980469 244.039062 L 247.242188 244.136719 C 246.011719 244.039062 244.496094 244.039062 242.980469 244.039062 Z M 242.980469 244.039062 " fill-opacity="1" fill-rule="nonzero"/><path fill="#eea221" d="M 376.113281 238.640625 L 375.167969 238.734375 C 375.546875 238.734375 375.832031 238.640625 376.113281 238.640625 Z M 376.113281 238.640625 " fill-opacity="1" fill-rule="nonzero"/><path fill="#eea221" d="M 259.847656 243.945312 C 260.605469 244.230469 261.363281 244.417969 262.214844 244.515625 C 262.40625 244.417969 262.59375 244.417969 262.6875 244.324219 Z M 259.847656 243.945312 " fill-opacity="1" fill-rule="nonzero"/><path fill="#eea221" d="M 149.453125 258.917969 C 149.074219 259.011719 148.695312 259.105469 148.410156 259.203125 C 148.789062 259.105469 149.167969 259.011719 149.453125 258.917969 Z M 149.453125 258.917969 " fill-opacity="1" fill-rule="nonzero"/><path fill="#eea221" d="M 168.878906 254.464844 C 169.164062 254.367188 169.449219 254.273438 169.828125 254.179688 C 169.257812 254.273438 168.3125 254.367188 168.878906 254.464844 Z M 168.878906 254.464844 " fill-opacity="1" fill-rule="nonzero"/><path fill="#eea221" d="M 139.125 255.03125 C 139.21875 255.03125 139.410156 254.9375 139.503906 254.9375 C 139.316406 255.03125 139.21875 255.03125 139.125 255.03125 Z M 139.125 255.03125 " fill-opacity="1" fill-rule="nonzero"/><path fill="#eea221" d="M 389.285156 239.492188 C 389.097656 239.492188 388.90625 239.492188 388.71875 239.585938 C 388.90625 239.585938 389.097656 239.492188 389.285156 239.492188 Z M 389.285156 239.492188 " fill-opacity="1" fill-rule="nonzero"/><path fill="#eea221" d="M 279.273438 244.136719 C 279.460938 244.136719 279.652344 244.136719 279.839844 244.039062 C 279.652344 244.136719 279.460938 244.136719 279.273438 244.136719 Z M 279.273438 244.136719 " fill-opacity="1" fill-rule="nonzero"/><path fill="#eea221" d="M 327.3125 297.292969 C 327.21875 297.199219 327.125 297.105469 326.839844 297.105469 Z M 327.3125 297.292969 " fill-opacity="1" fill-rule="nonzero"/><path fill="#eea221" d="M 485.085938 245.652344 L 484.800781 238.828125 C 477.980469 238.070312 473.808594 239.207031 467.746094 238.921875 C 467.839844 237.785156 461.679688 236.839844 458.554688 236.460938 L 458.648438 236.269531 C 449.457031 235.511719 442.917969 236.175781 434.390625 236.082031 C 429.179688 234.46875 416.480469 234.46875 408.046875 233.238281 C 409.375 233.523438 407.761719 234.1875 406.246094 234.1875 C 404.257812 233.804688 400.65625 234.753906 401.035156 233.710938 L 401.792969 233.804688 C 400.371094 232.667969 396.203125 232.765625 392.980469 232.574219 L 392.507812 233.902344 C 388.339844 232.667969 382.84375 232.574219 377.820312 232.667969 C 372.796875 232.667969 368.25 232.765625 365.976562 231.816406 C 363.984375 232.101562 361.425781 232.007812 359.4375 232.289062 L 359.53125 231.53125 C 353.941406 231.152344 351.097656 230.964844 344.179688 231.058594 L 345.601562 230.585938 C 341.71875 230.488281 340.582031 232.667969 336.980469 232.667969 L 335.9375 231.53125 C 329.113281 231.34375 322.195312 230.300781 315.46875 231.25 C 315.5625 231.058594 315.753906 230.773438 316.890625 230.679688 C 313.667969 230.585938 304.476562 229.730469 305.613281 231.34375 C 305.519531 230.300781 298.601562 231.152344 294.90625 231.628906 L 295.476562 230.867188 C 292.347656 231.816406 292.253906 232.101562 287.894531 232.386719 C 286.851562 232.289062 286.949219 231.816406 288.367188 232.007812 C 284.957031 231.628906 285.714844 232.765625 281.546875 232.289062 L 283.0625 231.816406 C 279.554688 231.722656 279.839844 232.007812 277.851562 232.574219 C 275.671875 232.859375 271.121094 232.480469 270.648438 231.816406 C 270.175781 232.195312 268.28125 232.859375 266.195312 232.667969 C 265.910156 232.386719 266.667969 232.289062 267.046875 232.195312 C 261.171875 231.722656 258.332031 233.144531 254.257812 232.480469 C 254.160156 232.195312 253.875 232.101562 253.59375 232.007812 C 257.855469 232.007812 261.457031 232.007812 261.742188 232.007812 C 261.648438 231.34375 257.953125 231.25 260.984375 230.300781 C 257.953125 230.867188 252.738281 232.007812 249.042969 231.816406 C 248.855469 231.722656 248.664062 231.722656 248.570312 231.628906 L 248.949219 231.53125 C 248.097656 231.4375 247.339844 231.53125 246.582031 231.722656 C 245.445312 231.628906 244.683594 231.53125 243.546875 231.628906 C 243.074219 231.058594 239.1875 231.4375 237.292969 231.4375 C 237.484375 232.195312 235.019531 232.101562 237.292969 232.667969 C 237.011719 232.574219 237.671875 232.574219 238.90625 232.480469 C 239.1875 232.480469 239.570312 232.386719 239.664062 232.386719 C 239.664062 232.386719 239.570312 232.386719 239.570312 232.480469 C 240.800781 232.480469 242.410156 232.386719 244.210938 232.289062 C 242.695312 232.667969 241.179688 233.046875 239.09375 232.667969 C 238.148438 233.144531 237.105469 233.710938 236.535156 233.996094 C 233.976562 232.953125 228.957031 232.574219 228.199219 231.910156 C 222.511719 232.195312 214.742188 232.386719 211.140625 233.902344 C 209.53125 234.1875 209.246094 233.523438 208.582031 233.332031 C 209.53125 233.144531 210.667969 233.144531 211.140625 232.953125 C 207.917969 233.425781 201.476562 233.425781 200.71875 234.46875 C 196.546875 234.1875 202.992188 233.425781 197.304688 233.804688 L 198.066406 233.425781 C 186.882812 232.386719 180.058594 236.742188 167.648438 235.417969 C 168.5 235.511719 168.972656 235.511719 169.164062 235.703125 C 162.054688 235.703125 154.855469 236.269531 147.652344 236.839844 C 140.453125 237.40625 133.25 238.070312 126.238281 237.785156 C 122.257812 237.785156 121.878906 238.449219 119.511719 239.113281 L 118.5625 238.355469 L 114.488281 239.585938 C 108.707031 240.722656 104.253906 238.449219 96.957031 240.34375 L 98 240.820312 C 95.347656 240.914062 89.660156 241.859375 90.039062 241.199219 C 89.757812 241.292969 89.1875 241.859375 88.144531 241.671875 L 88.050781 241.292969 L 81.605469 242.617188 C 76.492188 242.808594 82.269531 240.820312 74.878906 241.480469 C 72.132812 241.859375 67.203125 243.472656 68.246094 243.660156 C 69.382812 243.566406 71.089844 243.660156 71.183594 244.039062 L 68.71875 244.515625 C 68.4375 245.839844 66.636719 247.261719 72.792969 247.546875 L 76.964844 246.410156 L 78.386719 246.882812 L 74.785156 247.261719 C 76.871094 247.640625 78.101562 246.976562 79.523438 246.503906 C 79.902344 246.789062 80.46875 246.976562 81.417969 246.976562 L 85.492188 245.367188 C 86.0625 245.839844 83.691406 246.503906 86.535156 246.503906 C 88.429688 245.746094 84.542969 245.554688 87.765625 244.894531 C 89.851562 245.273438 89.28125 245.746094 91.652344 245.082031 C 92.03125 245.367188 91.558594 245.652344 90.609375 245.839844 C 92.695312 245.273438 96.292969 245.175781 97.335938 244.417969 C 99.515625 244.988281 104.539062 243.660156 104.445312 244.894531 C 105.105469 244.515625 108.140625 243.660156 110.128906 243.472656 C 106.625 245.175781 117.519531 243 116.667969 244.515625 C 119.226562 243 126.238281 243.1875 130.882812 242.238281 C 130.597656 242.429688 130.027344 242.714844 129.648438 242.617188 C 132.300781 242.523438 133.0625 242.902344 134.859375 243 C 135.144531 241.957031 139.21875 241.386719 141.398438 240.535156 C 144.714844 241.292969 139.503906 241.957031 140.546875 242.808594 C 140.355469 241.957031 146.136719 241.578125 145 240.914062 C 147.558594 241.386719 147.179688 241.101562 148.507812 241.859375 C 148.886719 240.535156 150.78125 241.480469 152.863281 240.535156 C 156.464844 241.007812 153.90625 241.671875 157.792969 241.101562 C 159.6875 241.386719 156.179688 242.050781 156.179688 242.050781 C 160.160156 241.859375 157.980469 241.007812 158.835938 240.34375 C 163.667969 239.777344 161.109375 240.914062 162.71875 241.386719 C 165.65625 240.914062 167.929688 239.871094 170.207031 239.777344 C 170.394531 239.964844 170.773438 239.964844 170.300781 240.15625 C 173.425781 239.207031 179.679688 239.679688 183.378906 238.449219 C 183.660156 238.542969 183.757812 238.640625 183.851562 238.640625 C 183.1875 238.164062 183.09375 237.691406 183.1875 237.3125 C 184.988281 237.21875 186.503906 236.554688 187.261719 237.125 C 186.125 237.125 186.03125 237.40625 185.554688 237.691406 L 187.453125 237.3125 C 189.15625 238.164062 184.894531 237.785156 184.894531 238.449219 C 188.589844 237.976562 192.851562 237.027344 195.695312 237.125 C 196.359375 237.976562 189.0625 237.785156 192.949219 238.355469 L 188.589844 238.164062 C 192 239.492188 185.933594 238.164062 189.0625 239.585938 C 194.84375 239.585938 195.507812 238.828125 201.191406 238.828125 C 202.421875 238.261719 200.71875 238.070312 202.042969 237.503906 C 210.195312 236.269531 208.582031 239.585938 214.550781 238.164062 C 216.070312 237.503906 216.636719 236.363281 220.902344 236.742188 L 219.480469 237.785156 C 225.070312 237.691406 222.605469 236.175781 228.480469 236.742188 C 227.4375 237.21875 224.121094 237.21875 224.976562 237.3125 C 228.765625 238.070312 227.628906 236.648438 230.566406 236.554688 L 231.230469 237.503906 C 237.199219 237.21875 243.644531 236.363281 250.277344 236.082031 C 249.898438 236.363281 248.761719 236.648438 250.371094 236.933594 C 258.519531 236.742188 267.902344 237.21875 275.957031 237.691406 L 278.988281 236.933594 C 279.746094 236.933594 280.3125 237.3125 279.554688 237.40625 C 282.683594 237.691406 279.746094 236.933594 281.167969 236.554688 C 282.96875 236.460938 283.535156 237.027344 282.398438 237.21875 C 287.894531 236.554688 298.035156 235.703125 303.910156 236.648438 L 302.773438 236.839844 C 307.320312 237.21875 307.890625 235.226562 312.058594 236.082031 L 311.300781 236.175781 C 316.226562 236.363281 321.34375 236.363281 326.273438 236.460938 C 331.105469 236.554688 335.746094 236.742188 339.441406 237.503906 C 340.863281 236.363281 349.109375 238.261719 349.773438 236.648438 C 355.363281 237.597656 353.75 237.785156 361.617188 238.640625 C 363.699219 238.828125 364.742188 237.785156 367.398438 237.691406 L 367.398438 238.542969 L 370.996094 237.785156 L 372.796875 238.828125 L 375.261719 238.734375 C 374.3125 238.640625 373.175781 238.261719 373.367188 238.070312 C 377.15625 237.785156 382.652344 239.019531 382.746094 239.398438 L 391.75 239.113281 C 391.558594 239.398438 390.707031 239.492188 389.757812 239.585938 C 393.171875 239.300781 390.042969 240.535156 394.117188 240.0625 C 393.550781 239.871094 394.496094 239.585938 394.59375 239.398438 C 396.773438 239.964844 401.792969 240.25 405.488281 240.15625 L 404.730469 240.722656 C 411.363281 241.199219 418.851562 241.199219 426.335938 241.671875 C 423.683594 241.292969 424.347656 240.25 426.527344 240.34375 L 427.378906 241.292969 C 428.800781 240.820312 425.105469 240.820312 428.042969 240.34375 C 430.789062 240.628906 429.84375 241.480469 428.230469 241.671875 L 431.640625 241.578125 C 431.832031 241.859375 430.980469 241.957031 430.789062 242.238281 C 432.210938 241.765625 436.570312 243.472656 438.65625 242.714844 L 438.84375 243 C 443.011719 243.28125 445.949219 243.378906 448.699219 243.472656 C 448.507812 243.472656 448.226562 243.472656 448.035156 243.472656 C 445.761719 243.566406 443.675781 243.851562 441.875 244.324219 L 442.253906 244.230469 C 439.792969 244.703125 437.234375 245.175781 434.769531 245.554688 C 431.261719 245.652344 436.855469 244.894531 434.199219 244.609375 C 430.125 245.460938 426.90625 245.652344 423.871094 245.652344 C 420.839844 245.652344 417.902344 245.652344 414.585938 246.21875 C 411.933594 245.367188 407.289062 245.460938 402.457031 245.746094 C 397.625 246.03125 392.507812 246.21875 389 245.652344 L 389.378906 246.125 C 387.582031 246.597656 387.199219 245.839844 385.875 245.746094 C 386.0625 246.125 387.863281 246.125 386.726562 246.410156 C 371.28125 247.074219 354.792969 245.652344 338.96875 244.796875 C 333.1875 244.515625 335.652344 247.167969 328.355469 245.9375 L 330.441406 245.082031 C 318.691406 245.839844 306.46875 244.417969 295 245.082031 C 295.664062 244.894531 295.761719 244.609375 296.800781 244.609375 C 294.433594 243.945312 287.800781 244.417969 287.800781 244.894531 C 286 244.796875 287.421875 244.417969 286.285156 244.136719 C 283.820312 243.757812 280.125 244.894531 278.894531 244.230469 C 278.703125 244.136719 279.082031 244.136719 279.460938 244.039062 C 277.375 244.230469 272.734375 243.851562 274.15625 244.609375 C 269.796875 244.230469 265.910156 244.894531 262.40625 244.417969 C 260.132812 245.273438 255.015625 243.945312 254.257812 245.175781 C 254.539062 243.945312 246.675781 244.230469 243.925781 244.796875 C 244.875 244.417969 241.558594 244.417969 242.601562 243.945312 C 239.472656 244.039062 236.632812 244.324219 237.199219 244.894531 C 231.417969 243.472656 225.734375 246.410156 222.417969 244.609375 C 213.226562 245.652344 204.601562 246.503906 196.359375 247.453125 C 196.546875 246.21875 205.550781 246.695312 205.078125 245.460938 C 201.097656 246.03125 198.066406 246.597656 194.9375 247.074219 C 191.808594 247.640625 188.777344 248.113281 184.894531 248.304688 C 182.808594 248.304688 186.03125 247.640625 186.695312 247.453125 C 178.828125 248.683594 171.4375 248.875 164.519531 250.578125 C 164.519531 250.484375 165.277344 250.199219 165.941406 250.011719 C 164.613281 250.199219 162.71875 250.292969 162.910156 250.769531 L 164.234375 250.484375 C 166.511719 250.957031 159.023438 252.851562 158.835938 253.328125 C 160.917969 251.335938 151.917969 254.085938 155.328125 251.429688 C 154.476562 251.714844 153.339844 252.09375 153.625 252.472656 C 152.296875 252.570312 151.824219 252.472656 153.054688 251.808594 C 148.222656 252.949219 150.023438 253.136719 145.570312 253.988281 C 145.570312 253.707031 146.421875 253.421875 146.800781 253.042969 C 144.621094 253.988281 142.535156 254.9375 138.746094 255.410156 C 138.9375 255.222656 138.652344 255.128906 139.21875 254.9375 C 136.1875 255.601562 133.628906 256.453125 131.070312 257.304688 C 128.324219 258.253906 125.480469 259.011719 121.972656 259.675781 C 123.773438 258.066406 119.511719 259.863281 118.941406 259.011719 L 115.058594 260.433594 L 116.667969 260.527344 C 113.351562 261.285156 110.699219 262.898438 107.855469 263.371094 L 110.128906 262.234375 L 104.160156 264.222656 L 107.191406 263.65625 C 105.863281 264.128906 104.824219 264.699219 102.167969 264.792969 L 102.167969 265.171875 C 102.074219 265.171875 101.886719 265.265625 101.789062 265.265625 L 102.359375 268.296875 C 102.453125 268.296875 102.644531 268.296875 102.738281 268.203125 L 102.832031 268.582031 C 103.023438 268.582031 103.210938 268.488281 103.402344 268.488281 C 103.210938 268.488281 103.023438 268.394531 102.832031 268.203125 C 102.925781 268.203125 103.117188 268.203125 103.210938 268.109375 C 103.117188 268.109375 102.925781 268.109375 102.738281 268.109375 C 102.644531 267.917969 102.644531 267.730469 103.117188 267.351562 C 103.96875 267.351562 104.726562 267.445312 105.390625 267.636719 C 105.863281 267.539062 106.339844 267.445312 106.8125 267.257812 C 106.71875 267.257812 106.71875 267.351562 106.71875 267.351562 C 106.90625 267.257812 107.003906 267.257812 107.191406 267.160156 C 107.570312 267.066406 107.949219 266.972656 108.421875 266.972656 C 108.328125 267.066406 108.140625 267.160156 107.949219 267.160156 C 107.097656 267.445312 106.71875 267.445312 106.71875 267.351562 C 105.675781 267.824219 104.253906 268.296875 105.675781 268.296875 L 106.054688 267.824219 C 107.382812 267.730469 110.320312 266.878906 111.265625 266.78125 C 111.835938 267.066406 110.792969 267.917969 111.171875 268.109375 C 112.78125 267.160156 118.941406 267.351562 121.027344 266.402344 C 120.363281 266.59375 120.363281 267.160156 120.550781 267.257812 L 121.878906 266.496094 C 123.394531 266.6875 123.679688 266.78125 123.394531 267.160156 C 128.039062 267.160156 121.878906 265.929688 127.46875 266.308594 C 126.996094 266.402344 127.28125 266.496094 126.332031 266.59375 C 129.082031 266.6875 131.828125 266.402344 134.386719 266.308594 C 137.039062 266.214844 139.597656 266.023438 142.15625 266.214844 C 143.671875 267.257812 137.703125 266.496094 139.410156 267.351562 C 143.105469 267.257812 146.894531 266.78125 150.6875 266.6875 C 154.476562 266.496094 158.265625 266.402344 161.773438 266.59375 L 160.445312 266.496094 C 160.917969 265.835938 162.246094 266.023438 163.953125 266.308594 C 165.5625 266.6875 167.550781 267.160156 169.351562 266.878906 C 168.5 266.972656 168.121094 267.636719 168.40625 267.445312 C 173.238281 267.917969 178.355469 267.539062 185.839844 267.730469 L 184.894531 268.015625 C 187.734375 268.582031 192.472656 268.773438 195.507812 269.246094 C 196.453125 268.960938 198.253906 269.246094 197.210938 268.582031 C 201.855469 270.195312 206.496094 270.289062 210.855469 270.476562 C 215.308594 270.761719 219.667969 270.953125 223.742188 272.371094 C 222.703125 272.277344 221.28125 272.371094 222.132812 272.46875 C 224.5 272.65625 226.964844 272.941406 229.335938 273.226562 C 228.859375 272.5625 228.480469 272.65625 227.058594 271.992188 C 228.007812 271.804688 230.09375 271.804688 231.894531 272.089844 C 228.578125 271.992188 231.796875 273.035156 233.125 273.605469 C 232.933594 273.414062 233.410156 273.226562 233.3125 273.035156 C 236.914062 274.742188 234.167969 271.898438 239.09375 273.511719 L 238.808594 273.792969 C 240.707031 273.984375 242.601562 273.890625 244.589844 274.363281 C 245.347656 275.214844 242.507812 274.269531 242.222656 274.835938 C 245.0625 275.308594 248.191406 274.550781 250.65625 275.785156 C 249.421875 275.785156 247.621094 275.40625 246.390625 275.40625 C 249.042969 276.828125 249.421875 276.636719 251.507812 277.207031 L 251.320312 277.109375 C 252.929688 277.585938 254.539062 277.964844 256.054688 278.4375 L 254.824219 277.964844 C 258.804688 276.921875 262.214844 279.195312 267.332031 279.101562 C 262.40625 279.195312 266.386719 279.574219 265.816406 280.332031 C 266.953125 280.804688 268.847656 281.46875 268.183594 281.566406 C 270.648438 281.46875 271.878906 282.984375 275.292969 282.890625 C 275.386719 283.175781 277.660156 283.554688 276.996094 284.027344 C 280.03125 284.597656 276.429688 283.363281 276.714844 283.175781 C 279.082031 283.269531 281.734375 284.21875 284.578125 285.164062 C 287.421875 286.207031 290.453125 287.25 293.863281 287.535156 C 299.644531 288.578125 300.875 288.101562 306.183594 289.238281 C 307.792969 290.1875 304.476562 289.714844 304.476562 289.714844 C 307.128906 290.945312 309.308594 291.515625 312.058594 292.082031 C 311.488281 292.175781 311.964844 292.460938 312.625 293.03125 C 314.804688 293.597656 314.332031 292.554688 316.984375 293.882812 C 316.417969 293.976562 315.660156 294.261719 314.523438 294.167969 C 317.082031 294.734375 319.640625 295.113281 322.292969 295.777344 C 322.859375 296.441406 320.492188 295.871094 319.542969 295.871094 C 322.480469 296.632812 327.125 298.050781 328.261719 297.671875 L 326.933594 297.011719 C 327.21875 297.292969 326.652344 297.578125 325.988281 297.390625 C 323.335938 297.105469 322.480469 295.96875 322.480469 295.589844 L 324.375 296.0625 C 323.050781 293.976562 316.984375 293.789062 313.289062 292.460938 L 315.183594 291.894531 C 313.859375 291.703125 312.4375 291.703125 311.109375 291.515625 C 310.351562 290.945312 310.066406 290.1875 311.867188 290.660156 C 309.40625 289.335938 309.40625 290.28125 307.320312 289.050781 C 307.128906 288.859375 307.226562 288.859375 307.511719 288.859375 L 304.761719 288.386719 C 305.332031 288.292969 304.574219 287.535156 306.089844 288.101562 C 301.636719 286.019531 298.316406 286.585938 296.800781 285.261719 L 297.179688 285.261719 C 290.546875 283.839844 296.328125 285.828125 291.117188 285.449219 L 288.367188 282.605469 L 287.515625 283.175781 C 286.851562 282.984375 285.527344 282.511719 285.90625 282.226562 C 283.25 282.039062 286.285156 282.703125 284.671875 282.796875 C 281.546875 281.28125 275.578125 280.902344 275.199219 279.386719 C 273.871094 279.667969 278.230469 280.617188 274.628906 280.144531 C 273.964844 278.53125 270.554688 279.289062 267.710938 278.058594 C 268.753906 277.585938 271.597656 278.53125 268.660156 277.300781 C 266.574219 278.058594 262.878906 275.785156 260.226562 275.40625 C 259.941406 276.351562 254.636719 274.550781 250.277344 274.078125 C 250.65625 273.792969 242.316406 271.992188 238.335938 270.953125 L 238.527344 270.761719 C 237.578125 271.613281 233.503906 270.761719 230.472656 270.476562 C 230.660156 269.910156 231.230469 269.816406 232.933594 269.816406 L 230.09375 269.339844 C 229.335938 269.53125 228.480469 269.53125 226.585938 269.339844 L 227.4375 268.675781 C 223.648438 268.109375 219.667969 268.488281 214.929688 267.351562 C 214.550781 268.015625 218.53125 269.816406 213.320312 269.53125 C 213.132812 269.152344 213.035156 268.488281 214.457031 268.488281 C 213.984375 268.488281 212.847656 268.582031 211.992188 268.296875 L 214.171875 267.917969 C 211.992188 267.351562 212.941406 268.296875 211.140625 268.015625 C 211.234375 267.445312 209.910156 267.445312 210.195312 267.066406 C 210.667969 267.066406 211.710938 267.445312 212.371094 267.351562 C 210.382812 266.972656 208.015625 266.402344 207.257812 265.929688 C 207.351562 266.214844 207.160156 266.6875 205.738281 266.59375 C 201.949219 266.214844 204.507812 265.835938 202.328125 265.265625 C 201.382812 265.550781 199.011719 264.886719 198.824219 265.644531 C 197.683594 265.550781 197.496094 265.171875 197.117188 264.886719 C 195.128906 264.980469 187.925781 264.222656 190.011719 265.171875 L 190.484375 265.265625 C 190.390625 265.265625 190.292969 265.265625 190.199219 265.265625 C 186.976562 265.457031 183.566406 265.078125 180.25 264.601562 C 176.933594 264.222656 173.617188 263.84375 170.394531 263.84375 L 170.394531 263.558594 C 168.5 263.65625 166.320312 263.558594 164.332031 263.558594 C 162.339844 263.558594 160.445312 263.65625 159.117188 263.941406 C 157.980469 263.941406 156.464844 263.371094 156.941406 263.085938 C 154.003906 263.179688 153.71875 263.558594 149.453125 262.992188 C 152.390625 262.613281 148.410156 262.519531 152.484375 262.707031 C 148.695312 262.421875 147.84375 261.949219 143.671875 262.707031 C 145.09375 262.042969 140.832031 261.855469 139.03125 262.042969 L 141.96875 263.277344 C 139.882812 263.371094 138.175781 263.371094 136.378906 263.277344 L 137.324219 262.328125 C 133.441406 261.761719 129.839844 262.421875 126.617188 262.898438 C 125.101562 263.085938 123.679688 263.277344 122.257812 263.371094 C 127.660156 262.234375 124.34375 262.140625 128.605469 261.003906 C 131.355469 260.90625 127.945312 262.328125 132.398438 260.90625 C 135.238281 260.621094 133.15625 261.570312 132.113281 262.140625 C 134.101562 261.382812 136.09375 261.003906 137.894531 260.8125 C 139.695312 260.71875 141.210938 260.621094 142.441406 260.527344 L 140.261719 261.191406 C 141.589844 260.8125 142.632812 260.621094 143.769531 260.339844 L 142.347656 259.960938 C 143.671875 259.863281 144.8125 259.582031 144.8125 259.863281 C 146.042969 259.203125 143.578125 259.011719 146.136719 257.96875 C 147.9375 257.96875 151.347656 256.644531 152.105469 257.402344 C 147.179688 257.96875 151.632812 258.066406 149.359375 258.824219 C 150.023438 258.726562 150.78125 258.632812 151.539062 258.539062 C 151.726562 258.632812 151.347656 258.726562 151.066406 258.824219 C 156.464844 258.726562 153.339844 257.496094 158.738281 256.644531 C 158.078125 257.210938 160.160156 257.304688 161.015625 257.117188 C 158.835938 257.496094 159.878906 256.453125 161.773438 255.789062 C 165.375 255.695312 165.5625 255.03125 167.363281 254.84375 L 165.277344 254.9375 C 165.941406 254.367188 167.648438 254.179688 170.109375 253.707031 C 170.207031 253.800781 170.015625 253.894531 169.828125 253.988281 C 172.289062 253.421875 175.511719 254.273438 178.734375 253.515625 C 180.535156 253.609375 179.019531 254.367188 180.535156 254.464844 C 184.703125 253.328125 185.175781 254.652344 189.632812 253.707031 C 188.304688 253.136719 188.113281 253.328125 191.148438 252.472656 L 183.851562 253.609375 L 188.492188 252.285156 C 186.316406 252.472656 183.851562 253.042969 182.523438 253.136719 C 184.703125 252.378906 184.515625 252.570312 183.378906 252.09375 C 186.503906 252.757812 189.347656 250.957031 192.949219 251.335938 L 192.949219 252.949219 C 195.601562 253.042969 197.96875 252.664062 200.527344 252.285156 C 203.085938 251.90625 205.835938 251.335938 209.246094 251.429688 L 206.972656 251.242188 C 207.824219 250.578125 211.234375 250.957031 213.414062 250.578125 C 213.226562 251.148438 214.648438 251.242188 215.59375 251.527344 C 215.5 251.148438 220.617188 251.335938 221.183594 250.292969 L 224.3125 250.863281 C 229.902344 250.957031 230.660156 249.15625 235.96875 249.253906 C 234.355469 249.820312 236.820312 250.199219 233.21875 250.671875 C 235.019531 250.671875 236.632812 250.671875 236.632812 250.390625 C 237.671875 250.671875 241.558594 249.535156 243.265625 250.011719 C 244.023438 249.726562 244.210938 249.253906 246.296875 249.253906 C 246.390625 249.347656 246.390625 249.441406 246.390625 249.441406 C 246.769531 249.253906 249.328125 249.0625 247.71875 248.589844 C 253.214844 250.199219 263.164062 248.398438 267.902344 249.914062 C 271.785156 249.820312 276.523438 249.632812 280.03125 249.632812 C 279.839844 249.820312 280.03125 249.914062 279.367188 249.820312 C 284.292969 250.390625 282.398438 248.304688 287.988281 248.96875 C 290.832031 249.914062 285.050781 249.347656 286.757812 249.726562 C 287.515625 251.527344 293.484375 249.632812 297.179688 250.671875 L 296.234375 250.769531 C 299.078125 251.429688 303.246094 250.292969 307.890625 250.484375 C 307.890625 250.484375 307.699219 250.671875 307.890625 250.769531 C 311.109375 249.914062 317.175781 249.820312 321.722656 249.632812 C 320.300781 250.292969 319.640625 249.914062 320.492188 250.671875 C 322.480469 250.578125 319.921875 249.535156 323.996094 249.441406 C 325.324219 249.820312 328.167969 250.292969 328.546875 250.957031 L 324.753906 250.863281 C 326.652344 251.90625 329.683594 250.957031 331.671875 251.148438 L 331.390625 251.527344 C 337.265625 251.527344 337.359375 250.484375 343.613281 250.671875 L 342.949219 250.390625 C 346.359375 249.441406 345.792969 251.050781 349.203125 250.292969 L 350.246094 251.335938 C 352.519531 251.148438 358.207031 250.390625 362.28125 250.292969 C 360.003906 251.050781 355.269531 251.429688 352.234375 251.8125 C 354.507812 251.8125 359.816406 251.8125 361.046875 251.335938 C 360.101562 251.429688 358.964844 251.714844 358.109375 251.527344 C 360.859375 250.769531 364.460938 250.390625 369.007812 250.390625 C 368.25 252.472656 380.664062 250.957031 383.882812 252.570312 C 391.75 251.8125 399.613281 252.757812 408.804688 252.285156 C 405.488281 250.769531 411.460938 252.191406 410.890625 250.484375 C 412.976562 250.292969 413.828125 250.292969 414.019531 250.390625 L 413.542969 250.292969 C 413.734375 250.292969 413.828125 250.292969 414.019531 250.390625 L 420.554688 251.050781 C 422.167969 251.429688 418.566406 251.527344 418.753906 251.90625 C 423.492188 251.8125 420.746094 252.472656 423.871094 252.851562 C 423.210938 252.285156 425.484375 251.90625 428.136719 252 L 424.347656 251.429688 C 430.882812 250.199219 430.125 252.472656 436.664062 251.148438 L 434.578125 251.8125 C 437.992188 251.335938 447.183594 250.863281 450.308594 249.15625 C 450.972656 249.253906 451.730469 249.632812 450.308594 249.914062 C 454.382812 249.535156 458.839844 248.875 463.101562 248.019531 C 467.367188 247.167969 471.347656 246.503906 474.566406 246.410156 L 474 246.882812 C 475.515625 246.503906 476.464844 245.746094 478.453125 245.839844 C 478.359375 246.03125 477.882812 246.316406 478.640625 246.21875 C 479.210938 246.03125 481.011719 245.460938 482.71875 245.082031 C 483.191406 245.082031 483.570312 245.175781 483.855469 245.175781 L 483 245.554688 C 483.949219 245.746094 484.613281 245.652344 485.085938 245.652344 Z M 240.894531 231.4375 C 240.894531 231.4375 240.800781 231.53125 240.707031 231.53125 C 240.800781 231.34375 240.988281 231.25 241.179688 231.152344 C 242.410156 231.058594 242.886719 231.152344 243.074219 231.34375 C 242.507812 231.34375 241.746094 231.4375 240.894531 231.4375 Z M 248.191406 236.363281 C 248.570312 236.363281 249.140625 236.269531 250.179688 236.269531 C 249.328125 236.269531 248.664062 236.363281 248.191406 236.363281 Z M 254.636719 236.175781 C 254.351562 235.890625 254.636719 235.605469 255.488281 235.605469 C 255.015625 235.796875 256.910156 235.890625 258.140625 236.082031 C 257.097656 236.082031 255.867188 236.082031 254.636719 236.175781 Z M 102.832031 268.203125 C 102.738281 268.203125 102.546875 268.203125 102.453125 268.203125 L 101.886719 265.359375 C 101.980469 265.359375 102.167969 265.265625 102.265625 265.265625 L 102.453125 266.023438 C 102.359375 266.023438 102.265625 266.023438 102.167969 266.117188 L 102.453125 267.445312 C 102.546875 267.445312 102.644531 267.445312 102.738281 267.445312 Z M 460.070312 242.714844 C 460.449219 242.808594 460.921875 242.808594 461.300781 242.902344 C 459.976562 243 458.648438 243 457.320312 243.09375 C 458.175781 243 459.21875 243 460.070312 242.714844 Z M 484.234375 245.175781 C 484.421875 245.175781 484.707031 245.082031 484.894531 245.082031 L 484.234375 245.367188 Z M 484.234375 245.175781 " fill-opacity="1" fill-rule="nonzero"/><path fill="#eea221" d="M 261.742188 231.816406 C 261.742188 231.910156 261.742188 231.910156 261.742188 231.816406 C 261.835938 231.910156 261.835938 231.910156 261.742188 231.816406 Z M 261.742188 231.816406 " fill-opacity="1" fill-rule="nonzero"/><path fill="#eea221" d="M 239 232.195312 C 238.808594 232.195312 238.714844 232.289062 238.527344 232.289062 C 238.808594 232.386719 239 232.386719 239.285156 232.480469 C 239.472656 232.386719 239.570312 232.289062 239.757812 232.195312 C 239.378906 232.195312 239.1875 232.195312 239 232.195312 Z M 239 232.195312 " fill-opacity="1" fill-rule="nonzero"/><path fill="#eea221" d="M 190.105469 265.835938 C 190.199219 265.835938 190.390625 265.929688 190.484375 265.929688 C 190.390625 265.929688 190.390625 265.835938 190.292969 265.835938 Z M 190.105469 265.835938 " fill-opacity="1" fill-rule="nonzero"/><path fill="#eea221" d="M 367.300781 238.640625 L 367.300781 238.449219 L 366.636719 238.640625 Z M 367.300781 238.640625 " fill-opacity="1" fill-rule="nonzero"/><path fill="#eea221" d="M 233.21875 273.792969 C 233.3125 273.890625 233.410156 273.984375 233.789062 274.078125 C 233.789062 274.078125 233.503906 273.984375 233.21875 273.792969 Z M 233.21875 273.792969 " fill-opacity="1" fill-rule="nonzero"/><path fill="#eea221" d="M 251.699219 277.394531 L 254.257812 278.152344 C 253.214844 277.773438 252.359375 277.488281 251.699219 277.394531 Z M 251.699219 277.394531 " fill-opacity="1" fill-rule="nonzero"/><path fill="#eea221" d="M 265.722656 280.710938 C 265.910156 280.617188 266.003906 280.523438 266.101562 280.425781 Z M 265.722656 280.710938 " fill-opacity="1" fill-rule="nonzero"/><path fill="#eea221" d="M 165.847656 250.105469 C 166.035156 250.105469 166.226562 250.011719 166.414062 250.011719 C 167.648438 249.632812 166.792969 249.820312 165.847656 250.105469 Z M 165.847656 250.105469 " fill-opacity="1" fill-rule="nonzero"/><path fill="#eea221" d="M 105.484375 267.730469 C 104.726562 267.917969 104.066406 268.109375 103.308594 268.203125 C 104.539062 268.203125 105.484375 268.109375 105.484375 267.730469 Z M 105.484375 267.730469 " fill-opacity="1" fill-rule="nonzero"/><path fill="#eea221" d="M 326.367188 298.714844 C 326.367188 298.621094 326.460938 298.621094 326.460938 298.621094 L 325.703125 298.429688 Z M 326.367188 298.714844 " fill-opacity="1" fill-rule="nonzero"/><path fill="#eea221" d="M 327.21875 298.808594 C 326.839844 298.714844 326.554688 298.621094 326.460938 298.621094 Z M 327.21875 298.808594 " fill-opacity="1" fill-rule="nonzero"/><path fill="#eea221" d="M 328.832031 299.09375 C 328.261719 299 327.789062 298.808594 327.21875 298.714844 C 327.789062 298.90625 328.453125 299.1875 328.832031 299.09375 Z M 328.832031 299.09375 " fill-opacity="1" fill-rule="nonzero"/><path fill="#eea221" d="M 307.699219 292.082031 L 307.414062 292.273438 C 307.511719 292.273438 307.605469 292.175781 307.699219 292.082031 Z M 307.699219 292.082031 " fill-opacity="1" fill-rule="nonzero"/><path fill="#eea221" d="M 307.226562 292.460938 L 307.511719 292.273438 C 306.5625 292.367188 303.625 290.378906 302.203125 290.472656 C 303.433594 290.945312 305.332031 291.988281 307.226562 292.460938 Z M 307.226562 292.460938 " fill-opacity="1" fill-rule="nonzero"/><path fill="#eea221" d="M 284.769531 281.375 C 278.988281 279.007812 285.808594 282.324219 279.652344 280.617188 L 284.390625 282.039062 C 283.535156 281.566406 282.589844 280.902344 284.769531 281.375 Z M 284.769531 281.375 " fill-opacity="1" fill-rule="nonzero"/><path fill="#eea221" d="M 264.964844 276.730469 C 267.523438 277.207031 265.058594 276.351562 265.152344 276.164062 C 263.449219 276.070312 263.066406 276.070312 264.964844 276.730469 Z M 264.964844 276.730469 " fill-opacity="1" fill-rule="nonzero"/><path fill="#eea221" d="M 156.371094 262.800781 C 154.382812 262.898438 156.371094 263.085938 156.085938 263.464844 Z M 156.371094 262.800781 " fill-opacity="1" fill-rule="nonzero"/><path fill="#eea221" d="M 137.136719 267.445312 L 138.082031 266.78125 L 135.144531 267.066406 Z M 137.136719 267.445312 " fill-opacity="1" fill-rule="nonzero"/><path fill="#eea221" d="M 263.828125 250.578125 L 263.257812 249.726562 C 261.835938 249.914062 261.550781 250.863281 263.828125 250.578125 Z M 263.828125 250.578125 " fill-opacity="1" fill-rule="nonzero"/><path fill="#eea221" d="M 343.140625 251.242188 C 343.992188 251.714844 346.265625 252 347.59375 251.621094 C 345.886719 251.527344 344.085938 251.242188 343.140625 251.242188 Z M 343.140625 251.242188 " fill-opacity="1" fill-rule="nonzero"/><path fill="#eea221" d="M 390.234375 232.480469 L 387.199219 232.574219 L 388.621094 232.667969 Z M 390.234375 232.480469 " fill-opacity="1" fill-rule="nonzero"/><g fill="#eea221" fill-opacity="1"><g transform="translate(48.738287, 186.331982)"><g><path d="M 44.109375 -89.390625 C 40.171875 -89.390625 37.144531 -90.492188 35.03125 -92.703125 C 32.914062 -94.921875 31.859375 -97.601562 31.859375 -100.75 C 31.859375 -101.539062 31.976562 -102.472656 32.21875 -103.546875 C 32.46875 -104.628906 32.789062 -105.566406 33.1875 -106.359375 C 34.46875 -105.765625 36.359375 -105.34375 38.859375 -105.09375 C 41.367188 -104.851562 44.296875 -104.734375 47.640625 -104.734375 C 52.660156 -104.734375 58.34375 -104.953125 64.6875 -105.390625 C 71.03125 -105.835938 77.101562 -106.304688 82.90625 -106.796875 C 88.707031 -107.285156 93.820312 -107.75 98.25 -108.1875 C 102.675781 -108.632812 105.523438 -108.859375 106.796875 -108.859375 C 110.441406 -108.859375 113.070312 -107.503906 114.6875 -104.796875 C 116.3125 -102.097656 117.519531 -98.488281 118.3125 -93.96875 C 115.75 -94.164062 113.210938 -94.335938 110.703125 -94.484375 C 108.203125 -94.628906 106.066406 -94.703125 104.296875 -94.703125 C 101.148438 -94.703125 97.976562 -94.601562 94.78125 -94.40625 C 91.582031 -94.207031 88.359375 -93.914062 85.109375 -93.53125 C 83.734375 -90.675781 82.207031 -87.304688 80.53125 -83.421875 C 78.863281 -79.535156 77.21875 -75.476562 75.59375 -71.25 C 73.976562 -67.019531 72.429688 -62.816406 70.953125 -58.640625 C 69.484375 -54.460938 68.207031 -50.703125 67.125 -47.359375 C 64.957031 -40.859375 63.0625 -34.851562 61.4375 -29.34375 C 59.8125 -23.84375 58.382812 -18.707031 57.15625 -13.9375 C 55.925781 -9.164062 54.867188 -4.613281 53.984375 -0.28125 C 53.097656 4.039062 52.3125 8.265625 51.625 12.390625 C 45.039062 11.410156 39.535156 7.28125 35.109375 0 C 35.890625 -3.050781 36.847656 -6.367188 37.984375 -9.953125 C 39.117188 -13.546875 40.445312 -17.628906 41.96875 -22.203125 C 43.488281 -26.773438 45.28125 -31.960938 47.34375 -37.765625 C 49.414062 -43.566406 51.78125 -50.15625 54.4375 -57.53125 C 55.414062 -60.28125 56.445312 -63.15625 57.53125 -66.15625 C 58.613281 -69.15625 59.671875 -72.128906 60.703125 -75.078125 C 61.734375 -78.035156 62.664062 -80.890625 63.5 -83.640625 C 64.34375 -86.390625 65.054688 -88.898438 65.640625 -91.171875 C 61.515625 -90.671875 57.609375 -90.25 53.921875 -89.90625 C 50.234375 -89.5625 46.960938 -89.390625 44.109375 -89.390625 Z M 44.109375 -89.390625 "/></g></g></g><g fill="#eea221" fill-opacity="1"><g transform="translate(135.469786, 186.331982)"><g><path d="M 10.765625 -2.953125 C 11.253906 -5.804688 12.113281 -9.566406 13.34375 -14.234375 C 14.570312 -18.910156 16.019531 -23.878906 17.6875 -29.140625 C 19.363281 -34.398438 21.132812 -39.679688 23 -44.984375 C 24.875 -50.296875 26.695312 -55.066406 28.46875 -59.296875 C 29.75 -62.347656 30.878906 -64.734375 31.859375 -66.453125 C 32.847656 -68.171875 33.929688 -69.625 35.109375 -70.8125 C 36.484375 -70.613281 37.90625 -70.265625 39.375 -69.765625 C 40.851562 -69.273438 42.28125 -68.6875 43.65625 -68 C 45.039062 -67.3125 46.269531 -66.597656 47.34375 -65.859375 C 48.425781 -65.128906 49.265625 -64.421875 49.859375 -63.734375 C 47.203125 -60.578125 44.863281 -56.984375 42.84375 -52.953125 C 40.832031 -48.921875 38.796875 -43.757812 36.734375 -37.46875 C 42.046875 -42.1875 46.738281 -46.707031 50.8125 -51.03125 C 54.894531 -55.363281 58.707031 -60.1875 62.25 -65.5 C 62.84375 -65.988281 63.875 -66.234375 65.34375 -66.234375 C 66.726562 -66.234375 68.054688 -66.007812 69.328125 -65.5625 C 70.609375 -65.125 71.492188 -64.515625 71.984375 -63.734375 C 70.210938 -59.003906 69.328125 -54.332031 69.328125 -49.71875 C 69.328125 -45.382812 69.96875 -42.140625 71.25 -39.984375 C 71.15625 -39.390625 70.492188 -38.253906 69.265625 -36.578125 C 68.035156 -34.910156 66.679688 -33.335938 65.203125 -31.859375 C 62.546875 -33.234375 60.179688 -35.125 58.109375 -37.53125 C 56.046875 -39.945312 54.523438 -42.582031 53.546875 -45.4375 C 48.921875 -42.1875 44.984375 -39.007812 41.734375 -35.90625 C 38.492188 -32.8125 35.71875 -29.375 33.40625 -25.59375 C 31.101562 -21.8125 29.140625 -17.457031 27.515625 -12.53125 C 25.890625 -7.613281 24.335938 -1.765625 22.859375 5.015625 C 21.972656 4.921875 20.914062 4.601562 19.6875 4.0625 C 18.457031 3.519531 17.226562 2.851562 16 2.0625 C 14.769531 1.28125 13.664062 0.445312 12.6875 -0.4375 C 11.707031 -1.320312 11.066406 -2.160156 10.765625 -2.953125 Z M 10.765625 -2.953125 "/></g></g></g><g fill="#eea221" fill-opacity="1"><g transform="translate(194.913311, 186.331982)"><g><path d="M 65.203125 -59.59375 C 66.179688 -59.59375 67.332031 -59.421875 68.65625 -59.078125 C 69.988281 -58.734375 71.195312 -58.289062 72.28125 -57.75 C 73.363281 -57.207031 74.273438 -56.640625 75.015625 -56.046875 C 75.753906 -55.460938 76.125 -54.925781 76.125 -54.4375 C 74.15625 -50.300781 72.332031 -46.144531 70.65625 -41.96875 C 68.988281 -37.789062 67.5625 -33.78125 66.375 -29.9375 C 65.195312 -26.101562 64.285156 -22.515625 63.640625 -19.171875 C 63.003906 -15.828125 62.6875 -12.925781 62.6875 -10.46875 C 62.6875 -7.71875 62.984375 -5.429688 63.578125 -3.609375 C 64.171875 -1.796875 65.15625 -0.492188 66.53125 0.296875 C 65.351562 1.078125 63.828125 1.710938 61.953125 2.203125 C 60.085938 2.703125 58.414062 2.953125 56.9375 2.953125 C 51.625 2.953125 48.96875 -0.6875 48.96875 -7.96875 C 48.96875 -13.570312 50.835938 -21.242188 54.578125 -30.984375 C 52.609375 -26.453125 50.34375 -22.195312 47.78125 -18.21875 C 45.226562 -14.238281 42.625 -10.722656 39.96875 -7.671875 C 37.320312 -4.617188 34.644531 -2.132812 31.9375 -0.21875 C 29.226562 1.695312 26.742188 2.851562 24.484375 3.25 C 20.847656 3.050781 17.898438 1.304688 15.640625 -1.984375 C 13.378906 -5.285156 12.25 -9.492188 12.25 -14.609375 C 12.25 -20.109375 13.425781 -25.90625 15.78125 -32 C 18.144531 -38.101562 21.171875 -43.757812 24.859375 -48.96875 C 28.546875 -54.1875 32.550781 -58.539062 36.875 -62.03125 C 41.207031 -65.519531 45.390625 -67.363281 49.421875 -67.5625 C 50.398438 -67.269531 51.503906 -66.679688 52.734375 -65.796875 C 53.960938 -64.910156 55.140625 -63.875 56.265625 -62.6875 C 57.398438 -61.507812 58.359375 -60.304688 59.140625 -59.078125 C 59.929688 -57.847656 60.378906 -56.789062 60.484375 -55.90625 C 56.546875 -55.3125 52.488281 -53.390625 48.3125 -50.140625 C 44.132812 -46.898438 40.347656 -42.992188 36.953125 -38.421875 C 33.554688 -33.847656 30.773438 -28.957031 28.609375 -23.75 C 26.453125 -18.539062 25.375 -13.671875 25.375 -9.140625 C 25.375 -7.273438 26.0625 -6.097656 27.4375 -5.609375 C 30.289062 -6.191406 33.582031 -8.625 37.3125 -12.90625 C 41.050781 -17.1875 45.578125 -23.800781 50.890625 -32.75 C 51.878906 -34.519531 52.988281 -36.484375 54.21875 -38.640625 C 55.445312 -40.804688 56.695312 -43.066406 57.96875 -45.421875 C 59.25 -47.785156 60.503906 -50.171875 61.734375 -52.578125 C 62.960938 -54.992188 64.117188 -57.332031 65.203125 -59.59375 Z M 65.203125 -59.59375 "/></g></g></g><g fill="#eea221" fill-opacity="1"><g transform="translate(264.239519, 186.331982)"><g><path d="M 22.421875 -52.21875 C 22.421875 -53.988281 22.539062 -55.660156 22.78125 -57.234375 C 23.03125 -58.804688 23.546875 -60.15625 24.328125 -61.28125 C 25.117188 -62.414062 26.203125 -63.300781 27.578125 -63.9375 C 28.960938 -64.582031 30.785156 -64.90625 33.046875 -64.90625 C 34.421875 -64.90625 35.96875 -64.753906 37.6875 -64.453125 C 39.40625 -64.160156 40.660156 -63.625 41.453125 -62.84375 C 41.054688 -61.164062 40.734375 -59.6875 40.484375 -58.40625 C 40.242188 -57.132812 40.050781 -55.734375 39.90625 -54.203125 C 39.757812 -52.679688 39.632812 -50.863281 39.53125 -48.75 C 39.4375 -46.632812 39.335938 -43.90625 39.234375 -40.5625 C 39.035156 -33.875 38.710938 -27.898438 38.265625 -22.640625 C 37.828125 -17.378906 36.820312 -12.144531 35.25 -6.9375 C 35.25 -6.539062 35.398438 -6.34375 35.703125 -6.34375 C 37.171875 -7.425781 38.835938 -9 40.703125 -11.0625 C 42.578125 -13.125 44.546875 -15.457031 46.609375 -18.0625 C 48.679688 -20.675781 50.75 -23.457031 52.8125 -26.40625 C 54.875 -29.351562 56.789062 -32.253906 58.5625 -35.109375 C 60.925781 -39.234375 63.53125 -44.394531 66.375 -50.59375 C 69.226562 -56.789062 71.59375 -63.429688 73.46875 -70.515625 C 74.050781 -70.515625 74.8125 -70.390625 75.75 -70.140625 C 76.6875 -69.898438 77.617188 -69.609375 78.546875 -69.265625 C 79.484375 -68.921875 80.320312 -68.550781 81.0625 -68.15625 C 81.800781 -67.757812 82.316406 -67.414062 82.609375 -67.125 C 82.410156 -62.894531 81.398438 -58.566406 79.578125 -54.140625 C 77.765625 -49.710938 75.578125 -45.429688 73.015625 -41.296875 C 70.460938 -37.171875 67.757812 -33.285156 64.90625 -29.640625 C 62.050781 -26.003906 59.445312 -22.859375 57.09375 -20.203125 C 52.363281 -14.703125 47.613281 -9.785156 42.84375 -5.453125 C 38.082031 -1.128906 32.40625 3.046875 25.8125 7.078125 C 23.257812 6.097656 21.242188 4.796875 19.765625 3.171875 C 18.285156 1.546875 17.546875 -0.148438 17.546875 -1.921875 C 17.546875 -3.097656 17.816406 -4.445312 18.359375 -5.96875 C 18.898438 -7.5 19.515625 -9.46875 20.203125 -11.875 C 20.898438 -14.28125 21.515625 -17.300781 22.046875 -20.9375 C 22.585938 -24.582031 22.859375 -29.207031 22.859375 -34.8125 C 22.859375 -38.0625 22.785156 -41.332031 22.640625 -44.625 C 22.492188 -47.914062 22.421875 -50.445312 22.421875 -52.21875 Z M 22.421875 -52.21875 "/></g></g></g><g fill="#eea221" fill-opacity="1"><g transform="translate(330.320668, 186.331982)"><g><path d="M 67.125 -61.078125 C 66.726562 -54.972656 65.644531 -49.734375 63.875 -45.359375 C 62.101562 -40.984375 59.566406 -37.144531 56.265625 -33.84375 C 52.972656 -30.550781 48.96875 -27.578125 44.25 -24.921875 C 39.53125 -22.273438 34.023438 -19.722656 27.734375 -17.265625 C 27.734375 -16.671875 27.707031 -16.050781 27.65625 -15.40625 C 27.601562 -14.769531 27.578125 -14.109375 27.578125 -13.421875 C 27.578125 -12.140625 27.675781 -10.8125 27.875 -9.4375 C 28.070312 -8.0625 28.414062 -6.78125 28.90625 -5.59375 C 29.40625 -4.414062 30.097656 -3.457031 30.984375 -2.71875 C 31.867188 -1.988281 33 -1.625 34.375 -1.625 C 37.03125 -1.625 39.632812 -2.210938 42.1875 -3.390625 C 44.75 -4.566406 47.179688 -6.015625 49.484375 -7.734375 C 51.796875 -9.460938 53.957031 -11.332031 55.96875 -13.34375 C 57.988281 -15.363281 59.785156 -17.207031 61.359375 -18.875 C 62.347656 -17.988281 63.1875 -17.15625 63.875 -16.375 C 59.445312 -10.46875 54.601562 -5.570312 49.34375 -1.6875 C 44.082031 2.1875 39.09375 4.664062 34.375 5.75 C 27.582031 4.96875 22.289062 2.488281 18.5 -1.6875 C 14.71875 -5.875 12.828125 -10.914062 12.828125 -16.8125 C 12.828125 -20.84375 13.394531 -24.945312 14.53125 -29.125 C 15.664062 -33.3125 17.238281 -37.347656 19.25 -41.234375 C 21.269531 -45.117188 23.628906 -48.78125 26.328125 -52.21875 C 29.035156 -55.664062 31.9375 -58.664062 35.03125 -61.21875 C 38.132812 -63.769531 41.332031 -65.785156 44.625 -67.265625 C 47.914062 -68.742188 51.1875 -69.484375 54.4375 -69.484375 C 58.957031 -68.890625 63.1875 -66.085938 67.125 -61.078125 Z M 56.9375 -56.203125 C 54.28125 -55.804688 51.523438 -54.722656 48.671875 -52.953125 C 45.828125 -51.179688 43.148438 -48.820312 40.640625 -45.875 C 38.128906 -42.925781 35.84375 -39.484375 33.78125 -35.546875 C 31.71875 -31.617188 30.09375 -27.390625 28.90625 -22.859375 C 36.78125 -26.796875 43.320312 -31.640625 48.53125 -37.390625 C 53.738281 -43.148438 56.539062 -49.421875 56.9375 -56.203125 Z M 56.9375 -56.203125 "/></g></g></g><g fill="#eea221" fill-opacity="1"><g transform="translate(389.911698, 186.331982)"><g><path d="M 14.15625 -9.4375 C 14.15625 -13.769531 15.1875 -19.84375 17.25 -27.65625 C 19.320312 -35.476562 22.226562 -44.597656 25.96875 -55.015625 C 32.0625 -71.640625 37.785156 -85.484375 43.140625 -96.546875 C 48.503906 -107.609375 53.742188 -116.238281 58.859375 -122.4375 C 60.035156 -122.238281 61.484375 -121.742188 63.203125 -120.953125 C 64.929688 -120.171875 66.628906 -119.3125 68.296875 -118.375 C 69.972656 -117.445312 71.472656 -116.488281 72.796875 -115.5 C 74.128906 -114.519531 74.988281 -113.734375 75.375 -113.140625 C 67.707031 -104.097656 60.972656 -94.363281 55.171875 -83.9375 C 49.367188 -73.507812 44.054688 -61.5625 39.234375 -48.09375 C 35.109375 -36.488281 31.960938 -26.035156 29.796875 -16.734375 C 27.628906 -7.441406 26.546875 0.296875 26.546875 6.484375 C 26.546875 8.160156 26.546875 9.191406 26.546875 9.578125 C 26.546875 9.972656 26.597656 10.367188 26.703125 10.765625 C 25.328125 10.566406 24.144531 10.222656 23.15625 9.734375 C 22.175781 9.242188 21.539062 8.65625 21.25 7.96875 C 21.050781 7.476562 20.507812 6.765625 19.625 5.828125 C 18.738281 4.890625 17.953125 4.175781 17.265625 3.6875 C 16.378906 3.09375 15.640625 1.546875 15.046875 -0.953125 C 14.453125 -3.460938 14.15625 -6.289062 14.15625 -9.4375 Z M 14.15625 -9.4375 "/></g></g></g></svg>